<?xml version="1.0" encoding="utf-8"?>
<!-- Generator: Adobe Illustrator 19.1.0, SVG Export Plug-In . SVG Version: 6.00 Build 0)  -->
<svg version="1.1" xmlns="http://www.w3.org/2000/svg" xmlns:xlink="http://www.w3.org/1999/xlink" x="0px" y="0px"
	 viewBox="0 0 120 113" style="enable-background:new 0 0 120 113;" xml:space="preserve">
<style type="text/css">
	.st0{fill:#FFFFFF;}
	.st1{fill:none;}
	.st2{stroke:#FFFFFF;stroke-linecap:round;stroke-miterlimit:10;}
</style>
<g id="Layer_1">
	<g>
		<g>
			<path class="st0" d="M70,85.9c0.4,0,0.8,0,1.2,0c6,0,12,0,18.1,0c0.3,0,0.7,0,1,0c0.8,0,1.3,0.4,1.2,1.2c0,0.8,0,1.5,0,2.3
				c0,1-0.3,1.3-1.3,1.3c-1.5,0-2.9,0-4.4,0c-6.6,0-13.3,0-19.9,0c-1.5,0-1.7-0.2-1.7-1.7c0-5.4,0-10.9,0-16.3c0-4.6,2-8.1,6-10.3
				c3.5-2,7.1-3.9,10.7-5.8c3.2-1.7,4.8-4.2,4.7-7.8c-0.1-3.4,0.1-6.8-0.1-10.2c-0.1-1.3-0.5-2.7-1-3.9c-0.8-1.6-2.4-2.3-4.1-2.6
				c-2.3-0.4-4.7-0.4-7,0.2c-2.4,0.6-4.1,2.8-4.2,5.6c-0.1,2.4-0.1,4.8-0.1,7.1c0,1.6-0.2,1.9-1.9,1.9c-0.9,0-1.8,0-2.7-0.1
				c-0.6,0-1-0.4-1-1c0-3.6-0.4-7.2,0.4-10.7c0.9-4,3.5-6.4,7.4-7.4c4.6-1.2,9.2-1.2,13.7,0.6c3.7,1.4,5.8,4.4,6,8.2
				c0.3,5.2,0.3,10.4,0,15.6c-0.2,3.7-2.5,6.4-5.7,8.3c-3.4,2-6.8,3.8-10.3,5.6c-1.7,0.9-3.3,2-4.2,3.9c-0.4,0.8-0.8,1.7-0.8,2.6
				C70,76.9,70,81.3,70,85.9"/>
			<path class="st0" d="M45.8,85.9c3.1,0,6.1,0,9.1,0c2.4,0,2.4,0,2.4,2.3c0,2.6,0,2.6-2.6,2.6c-8.2,0-16.4,0-24.5,0
				c-1.4,0-1.6-0.2-1.6-1.7c0-0.7,0-1.4,0-2c0-0.9,0.4-1.2,1.3-1.2c2.9,0,5.9,0,8.8,0c0.5,0,0.9,0,1.5,0V33.6
				c-2.7,0.6-5.3,1.3-7.9,1.9c-0.7,0.2-1.4,0.4-2.2,0.5c-0.9,0.2-1.2,0-1.3-1c-0.1-0.8-0.1-1.7,0-2.5c0-1.1,0.4-1.5,1.5-1.7
				c3.2-0.7,6.3-1.5,9.5-2.2c1.6-0.4,3.2-0.7,4.8-1.1c0.8-0.2,1.2,0.1,1.3,1c0,0.4,0,0.7,0,1.1c0,18.4,0,36.7,0,55V85.9z"/>
		</g>
		<path class="st0" d="M118,4.7h-17.6v4H116V109H4V8.7h15.6v-4H2c-1.1,0-2,0.9-2,2V111c0,1.1,0.9,2,2,2h116c1.1,0,2-0.9,2-2V6.7
			C120,5.6,119.1,4.7,118,4.7z"/>
		<g>
			<path class="st0" d="M34.1,12.1l-2.4-4.5H30v4.5h-2.4V0.2h4.1c2.5,0,4.4,0.9,4.4,3.6c0,1.8-0.9,2.9-2.2,3.4l2.8,4.8H34.1z
				 M30,5.7h1.5c1.5,0,2.3-0.6,2.3-1.9c0-1.3-0.8-1.7-2.3-1.7H30V5.7z"/>
			<path class="st0" d="M39.5,0.2h7.2v2h-4.9v2.7H46v2h-4.1v3.2h5.1v2h-7.4V0.2z"/>
			<path class="st0" d="M49.6,6.2c0-3.9,2.5-6.2,5.5-6.2c1.5,0,2.7,0.7,3.5,1.5L57.3,3c-0.6-0.6-1.3-1-2.2-1C53.4,2,52,3.6,52,6.1
				c0,2.6,1.2,4.1,3.1,4.1c1,0,1.8-0.5,2.4-1.2l1.2,1.5c-1,1.1-2.2,1.7-3.8,1.7C52.1,12.3,49.6,10.1,49.6,6.2z"/>
			<path class="st0" d="M61.6,0.2h7.2v2H64v2.7h4.1v2H64v3.2h5.1v2h-7.4V0.2z"/>
			<path class="st0" d="M72.4,0.2h2.4l3.4,6.3l1.2,2.6h0.1c-0.1-1.2-0.3-2.8-0.3-4.1V0.2h2.2v11.8H79l-3.4-6.3l-1.2-2.5h-0.1
				c0.1,1.3,0.3,2.8,0.3,4.1v4.8h-2.2V0.2z"/>
			<path class="st0" d="M87.6,2.2h-3.3v-2h9v2H90v9.9h-2.4V2.2z"/>
		</g>
	</g>
</g>
<g id="Layer_2">
</g>
<g id="Layer_3">
</g>
</svg>
