<?xml version="1.0" encoding="utf-8"?>
<!-- Generator: Adobe Illustrator 19.1.0, SVG Export Plug-In . SVG Version: 6.00 Build 0)  -->
<svg version="1.1" id="Layer_1" xmlns="http://www.w3.org/2000/svg" xmlns:xlink="http://www.w3.org/1999/xlink" x="0px" y="0px"
	 viewBox="0 0 300 60" style="enable-background:new 0 0 300 60;" xml:space="preserve">
<style type="text/css">
	.st0{fill:#FFFFFF;}
	.st1{fill:none;}
</style>
<g>
	<rect class="st1" width="30" height="30"/>
	<rect x="30" class="st1" width="30" height="30"/>
	<rect x="60" class="st1" width="30" height="30"/>
	<rect x="90" class="st1" width="30" height="30"/>
	<rect x="120" class="st1" width="30" height="30"/>
	<rect x="150" class="st1" width="30" height="30"/>
	<rect x="180" class="st1" width="30" height="30"/>
	<rect x="210" class="st1" width="30" height="30"/>
	<rect x="240" class="st1" width="30" height="30"/>
	<rect x="270" class="st1" width="30" height="30"/>
	<rect y="30" class="st1" width="30" height="30"/>
	<rect x="30" y="30" class="st1" width="30" height="30"/>
	<rect x="60" y="30" class="st1" width="30" height="30"/>
	<rect x="90" y="30" class="st1" width="30" height="30"/>
	<rect x="120" y="30" class="st1" width="30" height="30"/>
	<rect x="150" y="30" class="st1" width="30" height="30"/>
	<rect x="180" y="30" class="st1" width="30" height="30"/>
	<rect x="210" y="30" class="st1" width="30" height="30"/>
	<rect x="240" y="30" class="st1" width="30" height="30"/>
	<rect x="270" y="30" class="st1" width="30" height="30"/>
	<g>
		<path class="st0" d="M46.1,19.9c0,1.4,0,2.7,0,4.1c0,0.2-0.1,0.3-0.3,0.3c-0.9,0-1.8,0-2.7,0c-0.3,0-0.3,0-0.3-0.3
			c0-1.1,0-2.1,0-3.2c0-1.6,0-3.2,0-4.9c0-0.3,0-0.3-0.3-0.3c-0.6,0-1.1,0-1.7,0c-0.2,0-0.3-0.1-0.3-0.3c0-0.9,0-1.8,0-2.6
			c0-0.2,0.1-0.3,0.3-0.3c0.6,0,1.1,0,1.7,0c0.3,0,0.3,0,0.3-0.3c0-0.7,0-1.5,0-2.2c0-0.8,0.1-1.6,0.6-2.3c0.6-1,1.5-1.5,2.6-1.7
			c0.9-0.2,1.9-0.1,2.8-0.1c0.2,0,0.4,0,0.5,0.1c0.1,0,0.2,0.1,0.2,0.2c0,0.9,0,1.7,0,2.6c0,0.2-0.1,0.2-0.3,0.2c-0.4,0-0.7,0-1.1,0
			c-0.4,0-0.8,0-1.2,0.1c-0.4,0.1-0.6,0.3-0.7,0.7c0,0.3,0,0.5,0,0.8c0,0.6,0,1.2,0,1.7c0,0.2,0.1,0.3,0.3,0.3c0.9,0,1.8,0,2.8,0
			c0.3,0,0.3,0,0.3,0.3c0,0.9-0.1,1.7-0.1,2.6c0,0.2-0.1,0.3-0.3,0.3c-0.9,0-1.8,0-2.7,0c-0.2,0-0.2,0.1-0.2,0.2
			C46.1,17.2,46.1,18.5,46.1,19.9"/>
	</g>
	<g>
		<path d="M46.1,49.9c0,1.4,0,2.7,0,4c0,0.2-0.1,0.3-0.3,0.3c-0.9,0-1.8,0-2.7,0c-0.3,0-0.3,0-0.3-0.3c0-1.1,0-2.1,0-3.2
			c0-1.6,0-3.2,0-4.9c0-0.3,0-0.3-0.3-0.3c-0.6,0-1.1,0-1.7,0c-0.2,0-0.3-0.1-0.3-0.3c0-0.9,0-1.8,0-2.6c0-0.2,0.1-0.3,0.3-0.3
			c0.6,0,1.1,0,1.7,0c0.3,0,0.3,0,0.3-0.3c0-0.7,0-1.5,0-2.2c0-0.8,0.1-1.6,0.6-2.3c0.6-1,1.5-1.5,2.6-1.7c0.9-0.2,1.9-0.1,2.8-0.1
			c0.2,0,0.4,0,0.5,0.1c0.1,0,0.2,0.1,0.2,0.2c0,0.9,0,1.7,0,2.6c0,0.2-0.1,0.2-0.3,0.2c-0.4,0-0.7,0-1.1,0c-0.4,0-0.8,0-1.2,0.1
			c-0.4,0.1-0.6,0.3-0.7,0.7c0,0.3,0,0.5,0,0.8c0,0.6,0,1.2,0,1.7c0,0.2,0.1,0.3,0.3,0.3c0.9,0,1.8,0,2.8,0c0.3,0,0.3,0,0.3,0.3
			c0,0.9-0.1,1.7-0.1,2.6c0,0.2-0.1,0.3-0.3,0.3c-0.9,0-1.8,0-2.7,0c-0.2,0-0.2,0.1-0.2,0.2C46.1,47.2,46.1,48.5,46.1,49.9"/>
	</g>
	<g>
		<path class="st0" d="M114.3,10.4c0,0.9-0.3,1.8-0.6,2.7c-0.6,1.4-1.4,2.6-2.2,3.8c-0.8,1.2-1.7,2.3-2.7,3.4
			c-0.8,0.9-1.7,1.7-2.8,2.3c-0.5,0.3-1.1,0.5-1.7,0.5c-0.5,0-1-0.2-1.4-0.5c-0.4-0.3-0.6-0.7-0.9-1.2c-0.4-0.7-0.7-1.5-0.9-2.2
			c-0.2-0.9-0.5-1.8-0.7-2.7c-0.2-0.9-0.5-1.8-0.7-2.6c-0.2-0.6-0.4-1.2-0.8-1.7c-0.1-0.2-0.2-0.3-0.4-0.4c-0.2-0.1-0.4-0.2-0.6-0.1
			c-0.4,0.2-0.7,0.4-1.1,0.7c-0.1,0.1-0.2,0.1-0.3,0c-0.2-0.3-0.4-0.6-0.6-0.8c-0.1-0.2-0.1-0.2,0-0.3c0.6-0.5,1.2-1.1,1.8-1.6
			c0.5-0.5,1.1-1,1.7-1.4c0.4-0.3,0.9-0.6,1.3-0.8c0.9-0.3,1.9,0,2.4,0.8c0.3,0.5,0.5,1.1,0.6,1.7c0.2,1,0.3,2,0.5,2.9
			c0.2,1,0.4,2.1,0.7,3.1c0.1,0.4,0.3,0.8,0.5,1.1c0,0,0.1,0.1,0.1,0.1c0.2,0.3,0.5,0.3,0.8,0.1c0.3-0.3,0.6-0.6,0.9-0.9
			c0.6-0.8,1-1.6,1.4-2.4c0.2-0.4,0.3-0.8,0.3-1.3c0-0.2,0-0.4-0.1-0.6c-0.1-0.5-0.5-0.8-1.1-0.8c-0.5,0-0.9,0.1-1.3,0.2
			c0,0-0.1,0.1-0.1,0c-0.1,0,0-0.1,0-0.1c0.2-0.6,0.4-1.2,0.8-1.7c0.6-1,1.4-1.8,2.5-2.2c0.8-0.3,1.6-0.3,2.4-0.2
			c0.5,0.1,0.9,0.2,1.3,0.5c0.5,0.4,0.7,0.9,0.8,1.5C114.2,9.4,114.3,9.9,114.3,10.4"/>
	</g>
	<g>
		<path d="M114.3,40.4c0,0.9-0.3,1.8-0.6,2.7c-0.6,1.4-1.4,2.6-2.2,3.8c-0.8,1.2-1.7,2.3-2.7,3.4c-0.8,0.9-1.7,1.7-2.8,2.3
			c-0.5,0.3-1.1,0.5-1.7,0.5c-0.5,0-1-0.2-1.4-0.5c-0.4-0.3-0.6-0.7-0.9-1.2c-0.4-0.7-0.7-1.5-0.9-2.2c-0.2-0.9-0.5-1.8-0.7-2.7
			c-0.2-0.9-0.5-1.8-0.7-2.6c-0.2-0.6-0.4-1.2-0.8-1.7c-0.1-0.2-0.2-0.3-0.4-0.4c-0.2-0.1-0.4-0.2-0.6-0.1c-0.4,0.2-0.7,0.4-1.1,0.7
			c-0.1,0.1-0.2,0.1-0.3,0c-0.2-0.3-0.4-0.6-0.6-0.8c-0.1-0.2-0.1-0.2,0-0.3c0.6-0.5,1.2-1.1,1.8-1.6c0.5-0.5,1.1-1,1.7-1.4
			c0.4-0.3,0.9-0.6,1.3-0.8c0.9-0.3,1.9,0,2.4,0.8c0.3,0.5,0.5,1.1,0.6,1.7c0.2,1,0.3,2,0.5,2.9c0.2,1,0.4,2.1,0.7,3.1
			c0.1,0.4,0.3,0.8,0.5,1.1c0,0,0.1,0.1,0.1,0.1c0.2,0.3,0.5,0.3,0.8,0.1c0.3-0.3,0.6-0.6,0.9-0.9c0.6-0.8,1-1.6,1.4-2.4
			c0.2-0.4,0.3-0.8,0.3-1.3c0-0.2,0-0.4-0.1-0.6c-0.1-0.5-0.5-0.8-1.1-0.8c-0.5,0-0.9,0.1-1.3,0.2c0,0-0.1,0.1-0.1,0
			c-0.1,0,0-0.1,0-0.1c0.2-0.6,0.4-1.2,0.8-1.7c0.6-1,1.4-1.8,2.5-2.2c0.8-0.3,1.6-0.3,2.4-0.2c0.5,0.1,0.9,0.2,1.3,0.5
			c0.5,0.4,0.7,0.9,0.8,1.5C114.2,39.4,114.3,39.9,114.3,40.4"/>
	</g>
	<g>
		<path class="st0" d="M134.7,12.2c0,0-4.7-0.2-7.8-4.1c-0.5,1-1.3,3,0.9,5.1c-1.4-0.4-1.5-0.4-1.5-0.4s-0.5,2.2,2.8,3.8
			c-0.8,0.1-1.4,0-1.4,0s0.4,2.2,3.4,2.7c-1.5,1.1-3.9,1.8-5.4,1.6c1.7,1.3,6.7,2.7,10.5,0.7c3.8-1.9,6-5.6,6.2-9.6
			c0-0.8,0.4-1.4,1.8-2.7c-0.5,0.1-1.8,0.4-1.8,0.4s1.1-0.9,1.3-2.2c-0.7,0.5-2.1,1.1-2.3,1c-0.2-0.1-2.3-2.4-4.9-0.7
			C134.8,9.3,134.6,10.6,134.7,12.2"/>
	</g>
	<g>
		<path class="st0" d="M162.6,17.2c0,0.3-0.1,0.5-0.2,0.7c-0.1,0.2-0.2,0.3-0.4,0.5c-0.2,0.1-0.4,0.2-0.6,0.2
			c-0.2,0-0.5,0.1-0.7,0.1h-2.7v-3.1h2.7c0.5,0,1,0.1,1.3,0.4C162.4,16.1,162.6,16.6,162.6,17.2 M162.1,12.4c0,0.5-0.1,0.8-0.4,1
			c-0.3,0.2-0.7,0.3-1.1,0.3h-2.5v-2.7h2.4c0.2,0,0.4,0,0.6,0.1c0.2,0,0.4,0.1,0.6,0.2s0.3,0.2,0.4,0.4
			C162.1,12,162.1,12.2,162.1,12.4 M164.8,18.8c0.2-0.4,0.3-0.9,0.3-1.5c0-0.7-0.2-1.3-0.5-1.8c-0.3-0.5-0.9-0.9-1.6-1.1
			c0.5-0.2,0.9-0.6,1.2-0.9c0.3-0.4,0.4-0.9,0.4-1.4c0-0.5-0.1-1-0.3-1.3c-0.2-0.4-0.4-0.7-0.7-0.9c-0.3-0.2-0.7-0.4-1.2-0.5
			c-0.4-0.1-0.9-0.1-1.5-0.1h-5.4v11.4h5.5c0.5,0,1-0.1,1.5-0.2c0.5-0.1,0.9-0.3,1.3-0.6C164.3,19.6,164.6,19.2,164.8,18.8
			 M167.7,11.1h4.7V10h-4.7V11.1z M172.2,15.6h-3.7c0-0.2,0-0.3,0.1-0.5c0.1-0.2,0.2-0.4,0.3-0.6c0.1-0.2,0.3-0.3,0.6-0.5
			c0.2-0.1,0.5-0.2,0.9-0.2c0.6,0,1,0.2,1.2,0.4C171.9,14.6,172.1,15,172.2,15.6 M174.3,15.2c-0.2-0.6-0.4-1.1-0.7-1.6
			c-0.3-0.5-0.8-0.8-1.3-1.1c-0.5-0.3-1.1-0.4-1.8-0.4c-0.6,0-1.2,0.1-1.7,0.3c-0.5,0.2-1,0.5-1.3,0.9c-0.4,0.4-0.7,0.9-0.9,1.4
			s-0.3,1.1-0.3,1.7c0,0.6,0.1,1.2,0.3,1.8c0.2,0.5,0.5,1,0.8,1.4c0.4,0.4,0.8,0.7,1.3,0.9c0.5,0.2,1.1,0.3,1.8,0.3
			c0.9,0,1.7-0.2,2.4-0.6c0.7-0.4,1.2-1.1,1.5-2.1h-2c-0.1,0.3-0.3,0.5-0.6,0.7c-0.3,0.2-0.7,0.3-1.2,0.3c-0.6,0-1.1-0.2-1.5-0.5
			c-0.3-0.3-0.5-0.9-0.6-1.6h6C174.5,16.4,174.4,15.8,174.3,15.2"/>
	</g>
	<g>
		<path d="M162.6,47.2c0,0.3-0.1,0.5-0.2,0.7c-0.1,0.2-0.2,0.3-0.4,0.5c-0.2,0.1-0.4,0.2-0.6,0.2c-0.2,0-0.5,0.1-0.7,0.1h-2.7v-3.1
			h2.7c0.5,0,1,0.1,1.3,0.4C162.4,46.1,162.6,46.6,162.6,47.2 M162.1,42.4c0,0.5-0.1,0.8-0.4,1c-0.3,0.2-0.7,0.3-1.1,0.3h-2.5v-2.7
			h2.4c0.2,0,0.4,0,0.6,0.1c0.2,0,0.4,0.1,0.6,0.2c0.2,0.1,0.3,0.2,0.4,0.4C162.1,42,162.1,42.2,162.1,42.4 M164.8,48.8
			c0.2-0.4,0.3-0.9,0.3-1.5c0-0.7-0.2-1.3-0.5-1.8c-0.3-0.5-0.9-0.9-1.6-1.1c0.5-0.2,0.9-0.6,1.2-0.9c0.3-0.4,0.4-0.9,0.4-1.4
			c0-0.5-0.1-1-0.3-1.3c-0.2-0.4-0.4-0.7-0.7-0.9c-0.3-0.2-0.7-0.4-1.2-0.5c-0.4-0.1-0.9-0.1-1.5-0.1h-5.4v11.4h5.5
			c0.5,0,1-0.1,1.5-0.2c0.5-0.1,0.9-0.3,1.3-0.6C164.3,49.6,164.6,49.2,164.8,48.8 M167.7,41.1h4.7V40h-4.7V41.1z M172.2,45.6h-3.7
			c0-0.2,0-0.3,0.1-0.5c0.1-0.2,0.2-0.4,0.3-0.6c0.1-0.2,0.3-0.3,0.6-0.5c0.2-0.1,0.5-0.2,0.9-0.2c0.6,0,1,0.1,1.2,0.4
			C171.9,44.6,172.1,45,172.2,45.6 M174.3,45.2c-0.2-0.6-0.4-1.1-0.7-1.6c-0.3-0.5-0.8-0.8-1.3-1.1c-0.5-0.3-1.1-0.4-1.8-0.4
			c-0.6,0-1.2,0.1-1.7,0.3c-0.5,0.2-1,0.5-1.3,0.9c-0.4,0.4-0.7,0.9-0.9,1.4c-0.2,0.5-0.3,1.1-0.3,1.7c0,0.6,0.1,1.2,0.3,1.8
			c0.2,0.5,0.5,1,0.8,1.4c0.4,0.4,0.8,0.7,1.3,0.9c0.5,0.2,1.1,0.3,1.8,0.3c0.9,0,1.7-0.2,2.4-0.6c0.7-0.4,1.2-1.1,1.5-2.1h-2
			c-0.1,0.3-0.3,0.5-0.6,0.7c-0.3,0.2-0.7,0.3-1.2,0.3c-0.6,0-1.1-0.2-1.5-0.5c-0.3-0.3-0.5-0.9-0.6-1.6h6
			C174.5,46.4,174.4,45.8,174.3,45.2"/>
	</g>
	<g>
		<path class="st0" d="M190.4,12.2h-3.4v11.1h3.4V12.2z M190.7,8.7c0-1.1-0.9-2-2-2s-2,0.9-2,2c0,1.1,0.9,2,2,2S190.7,9.8,190.7,8.7
			 M203.3,23.3v-5.8c0-3-0.5-5.7-3.9-5.7c-2.9,0-3.6,1.9-3.6,1.9v-1.6h-3.3v11.1h3.3h0.1v-5.8c0-1.9,0.8-2.6,2.1-2.6
			c0.6,0,1,0.2,1.3,0.6c0.3,0.4,0.5,1.1,0.5,2v5.8H203.3z"/>
	</g>
	<g>
		<path d="M190.4,42.2h-3.4v11.1h3.4V42.2z M190.7,38.7c0-1.1-0.9-2-2-2s-2,0.9-2,2c0,1.1,0.9,2,2,2S190.7,39.8,190.7,38.7
			 M203.3,53.3v-5.8c0-3-0.5-5.7-3.9-5.7c-2.9,0-3.6,1.9-3.6,1.9v-1.6h-3.3v11.1h3.3h0.1v-5.8c0-1.9,0.8-2.6,2.1-2.6
			c0.6,0,1,0.2,1.3,0.6c0.3,0.4,0.5,1.1,0.5,2v5.8H203.3z"/>
	</g>
	<g>
		<path class="st0" d="M223.2,18.2c1.7-1.1,3.3-2.1,5-3.2c-1.7-1.1-3.3-2.1-5-3.2V18.2z M224.6,21.3c-2.1,0-4.2,0-6.3,0
			c-1,0-1.6-0.5-1.9-1.4c-0.2-0.4-0.3-0.9-0.4-1.3c-0.4-2.5-0.4-5,0.1-7.5c0.3-1.9,1-2.5,2.9-2.5c4,0,8,0,12,0
			c1.8,0,2.4,0.5,2.8,2.2c0.6,2.8,0.6,5.7-0.1,8.5c-0.3,1.3-0.9,1.9-2.3,1.9C229.2,21.4,224.6,21.3,224.6,21.3L224.6,21.3z"/>
	</g>
	<g>
		<path class="st0" d="M254.9,12.7C254.8,12.7,254.8,12.7,254.9,12.7c-0.9,0.6-1.6,1.3-2.5,1.9c-0.3,0.2-0.5,0.3-0.8,0.5
			c-0.2,0.1-0.3,0.2-0.5,0.2c-0.5,0.2-0.9,0.6-0.9,1.2c0,0.5,0.4,1,0.9,1.1c0.5,0.1,1.1-0.1,1.4-0.6c0.1-0.1,0.1-0.2,0.2-0.3
			c0.1-0.2,0.3-0.5,0.6-0.6c0.2-0.2,0.4-0.4,0.7-0.5c0.2-0.1,0.3-0.1,0.4,0.1c0.2-0.4,0.4-0.9,0.6-1.3c0,0.1,0,0.2-0.1,0.3
			c-0.3,1-0.6,2-0.9,3c0,0.1-0.1,0.1-0.1,0.2c-0.1,0.2-0.2,0.3-0.4,0.5c-0.6,0.3-0.8,1-0.5,1.7c0.2,0.6,0.9,1,1.5,0.8
			c0.6-0.1,1.1-0.7,1.1-1.3c0-0.2,0-0.5-0.2-0.7c-0.1-0.1-0.1-0.2-0.1-0.4c0.1-0.5,0.2-1.1,0.4-1.6c0.1-0.3,0.3-0.6,0.6-0.9
			c0.1-0.1,0.2-0.1,0.3-0.2c0.3-0.2,0.4-0.1,0.6,0.1c0.3,0.3,0.4,0.7,0.4,1.1c0,0.6,0.3,1.1,0.8,1.3c0.5,0.2,1.1,0,1.4-0.5
			c0.3-0.5,0.2-1.1-0.2-1.5c-0.5-0.5-0.9-1-1.3-1.5c-0.6-0.9-0.7-1.8-0.1-2.7c0.3-0.6,0.7-1.2,1-1.7c0.2-0.4,0.5-0.8,0.9-1
			c0.2-0.2,0.5-0.3,0.8-0.3c0.2,0,0.3,0,0.5,0.1c0.4,0.2,0.8,0.4,1.1,0.6c0.6,0.4,0.9,0.9,0.9,1.6c0,2.5,0,4.9,0,7.4
			c0,0.7-0.3,1.3-0.9,1.6c-2.2,1.2-4.4,2.5-6.6,3.7c-0.3,0.2-0.7,0.3-1.1,0.3c-0.3,0-0.6-0.1-0.9-0.2c-2.2-1.2-4.4-2.5-6.7-3.7
			c-0.6-0.4-0.9-0.9-0.9-1.6c0-2.4,0-4.9,0-7.3c0-0.7,0.3-1.3,0.9-1.6c2.2-1.3,4.4-2.5,6.7-3.7c0.6-0.3,1.3-0.3,1.9,0
			c0.3,0.1,0.5,0.3,0.8,0.4c0.5,0.2,0.6,0.6,0.6,1.1c0,0.4-0.1,0.7-0.3,1c-0.3,0.6-0.6,1.2-1,1.7c-0.6,0.9-1.4,1.4-2.5,1.6
			c-0.7,0.1-1.3,0-1.9,0c-0.2,0-0.4,0-0.6,0c-0.4,0.1-0.8,0.5-0.8,0.9c0,0.5,0.2,0.9,0.6,1.1c0.4,0.2,0.9,0.1,1.2-0.2
			c0.2-0.2,0.4-0.3,0.6-0.3c0.3-0.1,0.7-0.1,1-0.1c0.1,0,0.1,0,0.2-0.1c0.3-0.2,0.7-0.4,1-0.5C254.7,12.7,254.8,12.7,254.9,12.7"/>
	</g>
	<g>
		<path class="st0" d="M290,8c-0.6-1.2-2.2-1.7-3.8-0.9c-1.5,0.8-4.4,2.2-4.4,2.2c-2.1,1.1-2.9,5,0.3,7l2.1,1.2
			c-1.5,0.7-2.8,1.3-2.8,1.3c-1.1,0.4-2.1,2.1-1.4,3.3s2.2,1.7,3.8,0.9c1.5-0.8,4.4-2.2,4.4-2.2c2.1-1.1,2.9-5-0.3-7l-2.1-1.2
			c1.5-0.7,2.8-1.3,2.8-1.3C289.6,10.8,290.6,9.2,290,8"/>
	</g>
	<g>
		<path d="M290,38c-0.6-1.2-2.2-1.7-3.8-0.9c-1.5,0.8-4.4,2.2-4.4,2.2c-2.1,1.1-2.9,5,0.3,7l2.1,1.2c-1.5,0.7-2.8,1.3-2.8,1.3
			c-1.1,0.4-2.1,2.1-1.4,3.3s2.2,1.7,3.8,0.9c1.5-0.8,4.4-2.2,4.4-2.2c2.1-1.1,2.9-5-0.3-7l-2.1-1.2c1.5-0.7,2.8-1.3,2.8-1.3
			C289.6,40.8,290.6,39.2,290,38"/>
	</g>
	<g>
		<path d="M254.9,42.7C254.8,42.7,254.8,42.7,254.9,42.7c-0.9,0.6-1.6,1.3-2.5,1.9c-0.3,0.2-0.5,0.3-0.8,0.5
			c-0.2,0.1-0.3,0.2-0.5,0.2c-0.5,0.2-0.9,0.6-0.9,1.2c0,0.5,0.4,1,0.9,1.1c0.5,0.1,1.1-0.1,1.4-0.6c0.1-0.1,0.1-0.2,0.2-0.3
			c0.1-0.2,0.3-0.4,0.6-0.6c0.2-0.2,0.4-0.4,0.7-0.5c0.2-0.1,0.3-0.1,0.4,0.1c0.2-0.4,0.4-0.9,0.6-1.3c0,0.1,0,0.2-0.1,0.3
			c-0.3,1-0.6,2-0.9,3c0,0.1-0.1,0.1-0.1,0.2c-0.1,0.2-0.2,0.3-0.4,0.5c-0.6,0.3-0.8,1-0.5,1.7c0.2,0.6,0.9,1,1.5,0.8
			c0.6-0.1,1.1-0.7,1.1-1.3c0-0.2,0-0.5-0.2-0.7c-0.1-0.1-0.1-0.2-0.1-0.4c0.1-0.5,0.2-1.1,0.4-1.6c0.1-0.3,0.3-0.6,0.6-0.9
			c0.1-0.1,0.2-0.1,0.3-0.2c0.3-0.2,0.4-0.1,0.6,0.1c0.3,0.3,0.4,0.7,0.4,1.1c0,0.6,0.3,1.1,0.8,1.3c0.5,0.2,1.1,0,1.4-0.5
			c0.3-0.5,0.2-1.1-0.2-1.5c-0.5-0.5-0.9-1-1.3-1.5c-0.6-0.9-0.7-1.8-0.1-2.7c0.3-0.6,0.7-1.2,1-1.7c0.2-0.4,0.5-0.8,0.9-1
			c0.2-0.2,0.5-0.3,0.8-0.3c0.2,0,0.3,0,0.5,0.1c0.4,0.2,0.8,0.4,1.1,0.6c0.6,0.4,0.9,0.9,0.9,1.6c0,2.5,0,4.9,0,7.4
			c0,0.7-0.3,1.3-0.9,1.6c-2.2,1.2-4.4,2.5-6.6,3.7c-0.3,0.2-0.7,0.3-1.1,0.3c-0.3,0-0.6-0.1-0.9-0.2c-2.2-1.2-4.4-2.5-6.7-3.7
			c-0.6-0.3-0.9-0.9-0.9-1.6c0-2.4,0-4.9,0-7.3c0-0.7,0.3-1.3,0.9-1.6c2.2-1.3,4.4-2.5,6.7-3.7c0.6-0.3,1.3-0.3,1.9,0
			c0.3,0.1,0.5,0.3,0.8,0.4c0.5,0.2,0.6,0.6,0.6,1.1c0,0.4-0.1,0.7-0.3,1c-0.3,0.6-0.6,1.2-1,1.7c-0.6,0.9-1.4,1.4-2.5,1.6
			c-0.7,0.1-1.3,0-1.9,0c-0.2,0-0.4,0-0.6,0c-0.4,0.1-0.8,0.5-0.8,0.9c0,0.5,0.2,0.9,0.6,1.1c0.4,0.2,0.9,0.1,1.2-0.2
			c0.2-0.2,0.4-0.3,0.6-0.3c0.3-0.1,0.7-0.1,1-0.1c0.1,0,0.1,0,0.2-0.1c0.3-0.2,0.7-0.4,1-0.5C254.7,42.7,254.8,42.7,254.9,42.7"/>
	</g>
	<g>
		<path d="M223.2,48.2c1.7-1.1,3.3-2.1,5-3.2c-1.7-1.1-3.3-2.1-5-3.2V48.2z M224.6,51.3c-2.1,0-4.2,0-6.3,0c-1,0-1.6-0.5-1.9-1.4
			c-0.2-0.4-0.3-0.9-0.4-1.3c-0.4-2.5-0.4-5,0.1-7.5c0.3-1.9,1-2.5,2.9-2.5c4,0,8,0,12,0c1.8,0,2.4,0.5,2.8,2.2
			c0.6,2.8,0.6,5.7-0.1,8.5c-0.3,1.3-0.9,1.9-2.3,1.9C229.2,51.4,224.6,51.3,224.6,51.3L224.6,51.3z"/>
	</g>
	<g>
		<path d="M134.7,42.2c0,0-4.7-0.2-7.8-4.1c-0.5,1-1.3,3,0.9,5.1c-1.4-0.4-1.5-0.4-1.5-0.4s-0.5,2.2,2.8,3.8c-0.8,0.1-1.4,0-1.4,0
			s0.4,2.2,3.4,2.7c-1.5,1.1-3.9,1.8-5.4,1.6c1.7,1.3,6.7,2.7,10.5,0.7c3.8-1.9,6-5.6,6.2-9.6c0-0.8,0.4-1.4,1.8-2.7
			c-0.5,0.1-1.8,0.4-1.8,0.4s1.1-0.9,1.3-2.2c-0.7,0.5-2.1,1.1-2.3,1c-0.2-0.1-2.3-2.4-4.9-0.7C134.8,39.3,134.6,40.6,134.7,42.2"/>
	</g>
	<g>
		<path class="st0" d="M84.2,19.9c-0.2,0.3-0.5,0.4-0.9,0.5c-0.4,0.1-0.8,0.2-1.3,0.3c-0.3,0-0.4,0.2-0.5,0.4
			c-0.1,0.2-0.1,0.3-0.1,0.5c0,0.3-0.2,0.3-0.4,0.3c-0.3,0-0.7-0.1-1-0.1c-0.9-0.1-1.7,0.2-2.4,0.8c-0.5,0.4-1.1,0.7-1.7,0.9
			c-1,0.3-1.9,0-2.8-0.5c-0.4-0.3-0.8-0.6-1.3-0.8c-0.4-0.2-0.8-0.4-1.3-0.4c-0.5,0-1,0.1-1.5,0.1c-0.3,0-0.5,0-0.5-0.3
			c0-0.1,0-0.1,0-0.2c-0.1-0.6-0.2-0.7-0.8-0.8c-0.5-0.1-1-0.2-1.4-0.4c-0.2-0.1-0.3-0.2-0.5-0.3c0.8-0.1,1.4-0.4,2-0.8
			c1-0.7,1.8-1.7,2.2-2.8c0.3-0.6,0-1.2-0.6-1.4c-0.3-0.1-0.7-0.3-1-0.4c-0.1-0.1-0.3-0.1-0.4-0.2c-0.1-0.1-0.3-0.3-0.2-0.4
			c0.1-0.1,0.3-0.2,0.4-0.3c0.1,0,0.3,0,0.4,0.1c0.5,0.2,1,0.3,1.5,0c0.1-0.1,0.2-0.2,0.2-0.3c0-0.7-0.1-1.4-0.1-2.1
			c0-1.2,0.2-2.4,1.1-3.4c0.8-0.8,1.7-1.3,2.9-1.5c1.3-0.3,2.6,0,3.7,0.7c1,0.6,1.8,1.6,1.9,2.9c0.1,0.9,0,1.8,0,2.7
			c0,0.3,0,0.5,0,0.8c0,0.1,0.1,0.1,0.2,0.2c0.5,0.3,1,0.1,1.4-0.1c0.2-0.1,0.4-0.1,0.6,0c0.3,0.1,0.3,0.4,0,0.6
			c-0.2,0.1-0.5,0.2-0.7,0.3c-0.3,0.1-0.6,0.2-0.9,0.4c-0.5,0.3-0.7,0.8-0.4,1.4c0.5,1.2,1.3,2.2,2.3,2.8c0.5,0.3,1,0.5,1.5,0.7
			C84,19.9,84.1,19.9,84.2,19.9"/>
	</g>
	<g>
		<path d="M84.2,49.9c-0.2,0.3-0.5,0.4-0.9,0.5c-0.4,0.1-0.8,0.2-1.3,0.3c-0.3,0-0.4,0.2-0.5,0.4c-0.1,0.2-0.1,0.3-0.1,0.5
			c0,0.3-0.2,0.3-0.4,0.3c-0.3,0-0.7-0.1-1-0.1c-0.9-0.1-1.7,0.2-2.4,0.8c-0.5,0.4-1.1,0.7-1.7,0.9c-1,0.3-1.9,0-2.8-0.5
			c-0.4-0.3-0.8-0.6-1.3-0.8c-0.4-0.2-0.8-0.4-1.3-0.4c-0.5,0-1,0.1-1.5,0.1c-0.3,0-0.5,0-0.5-0.3c0-0.1,0-0.1,0-0.2
			c-0.1-0.6-0.2-0.7-0.8-0.8c-0.5-0.1-1-0.2-1.4-0.4c-0.2-0.1-0.3-0.2-0.5-0.3c0.8-0.1,1.4-0.4,2-0.8c1-0.7,1.8-1.7,2.2-2.8
			c0.3-0.6,0-1.2-0.6-1.4c-0.3-0.1-0.7-0.3-1-0.4c-0.1-0.1-0.3-0.1-0.4-0.2c-0.1-0.1-0.3-0.3-0.2-0.4c0.1-0.1,0.3-0.2,0.4-0.3
			c0.1,0,0.3,0,0.4,0.1c0.5,0.2,1,0.3,1.5,0c0.1-0.1,0.2-0.2,0.2-0.3c0-0.7-0.1-1.4-0.1-2.1c0-1.2,0.2-2.4,1.1-3.4
			c0.8-0.8,1.7-1.3,2.9-1.5c1.3-0.3,2.6,0,3.7,0.7c1,0.6,1.8,1.6,1.9,2.9c0.1,0.9,0,1.8,0,2.7c0,0.3,0,0.5,0,0.8
			c0,0.1,0.1,0.1,0.2,0.2c0.5,0.3,1,0.1,1.4-0.1c0.2-0.1,0.4-0.1,0.6,0c0.3,0.1,0.3,0.4,0,0.6c-0.2,0.1-0.5,0.2-0.7,0.3
			c-0.3,0.1-0.6,0.2-0.9,0.4c-0.5,0.3-0.7,0.8-0.4,1.4c0.5,1.2,1.3,2.2,2.3,2.8c0.5,0.3,1,0.5,1.5,0.7C84,49.9,84.1,49.9,84.2,49.9"
			/>
	</g>
	<g>
		<path class="st0" d="M20.3,11.4c0.3,0,0.6,0,1,0c0.5,0,0.9-0.3,0.9-0.8c0-0.6,0-1.3,0-1.9c0-0.5-0.3-0.8-0.9-0.8c-0.7,0-1.3,0-2,0
			c-0.5,0-0.8,0.3-0.8,0.8c0,0.7,0,1.3,0,2c0,0.5,0.4,0.8,0.9,0.8C19.6,11.4,19.9,11.4,20.3,11.4 M18.7,15c0-2-1.6-3.6-3.6-3.6
			c-2,0-3.7,1.6-3.7,3.6c0,2,1.7,3.6,3.7,3.6C17,18.5,18.7,16.9,18.7,15 M9.4,13.6c-0.4,0-0.8,0-1.1,0c-0.3,0-0.5,0.1-0.5,0.4
			c0,2.4,0,4.8,0,7.1c0,0.6,0.3,0.9,0.9,0.9c4.1,0,8.3,0,12.4,0c0.7,0,0.9-0.2,0.9-1c0-1.9,0-3.8,0-5.7c0-0.5,0-1,0-1.5
			c0-0.1-0.1-0.3-0.2-0.3c-0.4,0-0.9,0-1.3,0c1,3.9-2.2,7.1-5.5,7.1C11.7,20.8,8.4,17.6,9.4,13.6 M24.3,15c0,2.2,0,4.5,0,6.7
			c0,1.5-1,2.5-2.5,2.5c-4.5,0-9,0-13.5,0c-1.5,0-2.5-1-2.5-2.6c0-4.5,0-8.9,0-13.4c0-1.5,1-2.6,2.6-2.6c4.5,0,9,0,13.4,0
			c1.6,0,2.6,1,2.6,2.6C24.3,10.5,24.3,12.8,24.3,15L24.3,15z"/>
	</g>
	<g>
		<path d="M20.3,41.4c0.3,0,0.6,0,1,0c0.5,0,0.9-0.3,0.9-0.8c0-0.6,0-1.3,0-1.9c0-0.5-0.3-0.8-0.9-0.8c-0.7,0-1.3,0-2,0
			c-0.5,0-0.8,0.3-0.8,0.8c0,0.7,0,1.3,0,2c0,0.5,0.4,0.8,0.9,0.8C19.6,41.4,19.9,41.4,20.3,41.4 M18.7,45c0-2-1.6-3.6-3.6-3.6
			c-2,0-3.7,1.6-3.7,3.6c0,2,1.7,3.6,3.7,3.6C17,48.5,18.7,46.9,18.7,45 M9.4,43.6c-0.4,0-0.8,0-1.1,0c-0.3,0-0.5,0.1-0.5,0.4
			c0,2.4,0,4.8,0,7.1c0,0.6,0.3,0.9,0.9,0.9c4.1,0,8.3,0,12.4,0c0.7,0,0.9-0.2,0.9-1c0-1.9,0-3.8,0-5.7c0-0.5,0-1,0-1.5
			c0-0.1-0.1-0.3-0.2-0.3c-0.4,0-0.9,0-1.3,0c1,3.9-2.2,7.1-5.5,7.1C11.7,50.8,8.4,47.6,9.4,43.6 M24.3,45c0,2.2,0,4.5,0,6.7
			c0,1.5-1,2.5-2.5,2.5c-4.5,0-9,0-13.5,0c-1.5,0-2.5-1-2.5-2.6c0-4.5,0-9,0-13.4c0-1.5,1-2.6,2.6-2.6c4.5,0,9,0,13.4,0
			c1.6,0,2.6,1,2.6,2.6C24.3,40.5,24.3,42.8,24.3,45L24.3,45z"/>
	</g>
</g>
</svg>
