<?xml version="1.0" encoding="utf-8"?>
<!-- Generator: Adobe Illustrator 19.1.0, SVG Export Plug-In . SVG Version: 6.00 Build 0)  -->
<svg version="1.1" id="Layer_1" xmlns="http://www.w3.org/2000/svg" xmlns:xlink="http://www.w3.org/1999/xlink" x="0px" y="0px"
	 viewBox="0 0 216 100" style="enable-background:new 0 0 216 100;" xml:space="preserve">
<style type="text/css">
	.st0{fill:#FFFFFF;}
</style>
<g>
	<path class="st0" d="M46.8,25.3h-9l-1.7,4.6L10.5,54.5h0.1l-1.5,4.8v-3.5v-1.3V25.3H0v47.8h8.9l1.7-4.8l25.7-25l1.3-4.2v3v1.8v29.2
		h9.2V25.3z M57.7,6.3c0-3.5-2.8-6.3-6.3-6.3C47.9,0,45,2.8,45,6.3c0,3.5,2.8,6.3,6.3,6.3C54.8,12.6,57.7,9.8,57.7,6.3 M93.5,73.1
		h9.2V25.3h-9l-1.7,4.6L66.5,54.5h0.1l-1.4,4.8v-3.5v-1.3V25.3h-9.1v47.8h8.9l1.7-4.8l25.7-25l1.3-4.2v3v1.8V73.1z M149.5,100h9.2
		V25.3h-9l-1.7,4.6l-25.6,24.6h0.1l-1.5,4.8v-3.5v-1.3V25.3h-9.1v47.8h8.9l1.7-4.8l25.7-25l1.3-4.2v3v1.8V100z M206,49
		c0,8.6-7,15.6-15.7,15.6c-8.6,0-15.6-7-15.6-15.6c0-8.6,7-15.7,15.6-15.7C199,33.3,206,40.3,206,49 M216,49
		c0-14.1-11.5-25.6-25.6-25.6c-14.1,0-25.6,11.5-25.6,25.6c0,14.1,11.5,25.6,25.6,25.6C204.5,74.6,216,63.1,216,49"/>
</g>
</svg>
