<?xml version="1.0" encoding="utf-8"?>
<!-- Generator: Adobe Illustrator 19.1.0, SVG Export Plug-In . SVG Version: 6.00 Build 0)  -->
<svg version="1.1" id="Layer_1" xmlns="http://www.w3.org/2000/svg" xmlns:xlink="http://www.w3.org/1999/xlink" x="0px" y="0px"
	 viewBox="-197 347 216 100" style="enable-background:new -197 347 216 100;" xml:space="preserve">
<g>
	<path d="M-150.2,372.3h-9l-1.7,4.6l-25.6,24.6h0.1l-1.5,4.8v-3.5v-1.3v-29.2h-9.1v47.8h8.9l1.7-4.8l25.7-25l1.3-4.2v3v1.8v29.2h9.2
		V372.3z M-139.3,353.3c0-3.5-2.8-6.3-6.3-6.3s-6.4,2.8-6.4,6.3s2.8,6.3,6.3,6.3S-139.3,356.8-139.3,353.3 M-103.5,420.1h9.2v-47.8
		h-9l-1.7,4.6l-25.5,24.6h0.1l-1.4,4.8v-3.5v-1.3v-29.2h-9.1v47.8h8.9l1.7-4.8l25.7-25l1.3-4.2v3v1.8v29.2H-103.5z M-47.5,447h9.2
		v-74.7h-9l-1.7,4.6l-25.6,24.6h0.1l-1.5,4.8v-3.5v-1.3v-29.2h-9.1v47.8h8.9l1.7-4.8l25.7-25l1.3-4.2v3v1.8V447z M9,396
		c0,8.6-7,15.6-15.7,15.6c-8.6,0-15.6-7-15.6-15.6s7-15.7,15.6-15.7C2,380.3,9,387.3,9,396 M19,396c0-14.1-11.5-25.6-25.6-25.6
		s-25.6,11.5-25.6,25.6s11.5,25.6,25.6,25.6S19,410.1,19,396"/>
</g>
</svg>
