<?xml version="1.0" encoding="utf-8"?>
<!-- Generator: Adobe Illustrator 19.1.0, SVG Export Plug-In . SVG Version: 6.00 Build 0)  -->
<svg version="1.1" xmlns="http://www.w3.org/2000/svg" xmlns:xlink="http://www.w3.org/1999/xlink" x="0px" y="0px"
	 viewBox="0 0 22 41" style="enable-background:new 0 0 22 41;" xml:space="preserve">
<style type="text/css">
	.st0{fill:#FFFFFF;}
	.st1{fill:none;}
	.st2{stroke:#FFFFFF;stroke-linecap:round;stroke-miterlimit:10;}
	.st3{fill:#B18939;}
	.st4{fill:none;stroke:#FFFFFF;stroke-width:2;stroke-miterlimit:10;}
	.st5{fill:#FFFFFF;stroke:#FFFFFF;stroke-width:2;stroke-linecap:round;stroke-miterlimit:10;}
	.st6{fill:none;stroke:#FFFFFF;stroke-width:2;stroke-linecap:round;stroke-miterlimit:10;}
	.st7{fill:none;stroke:#FFFFFF;stroke-width:2;stroke-linecap:round;stroke-linejoin:round;}
</style>
<g id="Layer_1">
</g>
<g id="Layer_2">
</g>
<g id="Layer_3">
	<rect x="0" y="0" class="st1" width="22" height="41"/>
	<g>
		<path class="st0" d="M16.5,9.9c0.6,0,1.1,0.5,1.1,1.1v0.2V13v7.5V28v1.8V30c0,0.6-0.5,1.1-1.1,1.1h-0.3h-1.1H4.8l6.2-9.2
			c0.3-0.5,0.5-0.9,0.5-1.4c0-0.5-0.2-1-0.5-1.4L4.8,9.9h10.3h1.1H16.5z M18.4,8H3.6C3,8,2.5,8.5,2.5,9.1v11.4v11.4
			C2.5,32.5,3,33,3.6,33h14.8c0.6,0,1.1-0.5,1.1-1.1V20.5V9.1C19.5,8.5,19,8,18.4,8"/>
	</g>
</g>
</svg>
