<?xml version="1.0" encoding="utf-8"?>
<!-- Generator: Adobe Illustrator 19.1.0, SVG Export Plug-In . SVG Version: 6.00 Build 0)  -->
<svg version="1.1" xmlns="http://www.w3.org/2000/svg" xmlns:xlink="http://www.w3.org/1999/xlink" x="0px" y="0px"
	 viewBox="0 0 22 41" style="enable-background:new 0 0 22 41;" xml:space="preserve">
<style type="text/css">
	.st0{fill:#FFFFFF;}
	.st1{fill:none;}
	.st2{stroke:#FFFFFF;stroke-linecap:round;stroke-miterlimit:10;}
	.st3{fill:#B18939;}
	.st4{fill:none;stroke:#FFFFFF;stroke-width:2;stroke-miterlimit:10;}
	.st5{fill:#FFFFFF;stroke:#FFFFFF;stroke-width:2;stroke-linecap:round;stroke-miterlimit:10;}
	.st6{fill:none;stroke:#FFFFFF;stroke-width:2;stroke-linecap:round;stroke-miterlimit:10;}
	.st7{fill:none;stroke:#FFFFFF;stroke-width:2;stroke-linecap:round;stroke-linejoin:round;}
</style>
<g id="Layer_1">
</g>
<g id="Layer_2">
</g>
<g id="Layer_3">
	<rect class="st1" width="22" height="41"/>
	<path class="st0" d="M22,27.5v-14h-1.3v14H22z M17.2,24.7l-0.7,1.3h-2.6L5,20.8l0.6-1l8.2,4.8c0.5,0.3,1,0.1,1.3-0.3
		c0.3-0.5,0.1-1-0.3-1.3l-8.2-4.8l0.5-0.9l8.9,5.1L17.2,24.7z M2.5,19.3c-0.9-0.5-1.2-1.7-0.7-2.6L2,16.5c0.5-0.9,1.7-1.2,2.6-0.7
		l1.2,0.7l-2,3.5L2.5,19.3z M6.5,15.1L6.5,15.1l-1.2-0.7c-1.6-1-3.7-0.4-4.7,1.3L0.5,16c-0.5,0.8-0.6,1.7-0.3,2.6
		c0.2,0.9,0.8,1.6,1.6,2.1l1.2,0.7l0,0l10.6,6.1h7.2L17,21.3L6.5,15.1z"/>
</g>
</svg>
