<?xml version="1.0" encoding="utf-8"?>
<!-- Generator: Adobe Illustrator 19.1.0, SVG Export Plug-In . SVG Version: 6.00 Build 0)  -->
<svg version="1.1" id="Layer_1" xmlns="http://www.w3.org/2000/svg" xmlns:xlink="http://www.w3.org/1999/xlink" x="0px" y="0px"
	 viewBox="-155 367 300 90" style="enable-background:new -155 367 300 90;" xml:space="preserve">
<style type="text/css">
	.st0{fill:none;stroke:#000000;stroke-linecap:round;stroke-miterlimit:10;}
	.st1{fill:none;}
	.st2{fill:#FFFFFF;}
</style>
<g>
	<path d="M-108.9,386.9c0,1.4,0,2.7,0,4.1c0,0.2-0.1,0.3-0.3,0.3c-0.9,0-1.8,0-2.7,0c-0.3,0-0.3,0-0.3-0.3c0-1.1,0-2.1,0-3.2
		c0-1.6,0-3.2,0-4.9c0-0.3,0-0.3-0.3-0.3c-0.6,0-1.1,0-1.7,0c-0.2,0-0.3-0.1-0.3-0.3c0-0.9,0-1.8,0-2.6c0-0.2,0.1-0.3,0.3-0.3
		c0.6,0,1.1,0,1.7,0c0.3,0,0.3,0,0.3-0.3c0-0.7,0-1.5,0-2.2c0-0.8,0.1-1.6,0.6-2.3c0.6-1,1.5-1.5,2.6-1.7c0.9-0.2,1.9-0.1,2.8-0.1
		c0.2,0,0.4,0,0.5,0.1c0.1,0,0.2,0.1,0.2,0.2c0,0.9,0,1.7,0,2.6c0,0.2-0.1,0.2-0.3,0.2c-0.4,0-0.7,0-1.1,0s-0.8,0-1.2,0.1
		c-0.4,0.1-0.6,0.3-0.7,0.7c0,0.3,0,0.5,0,0.8c0,0.6,0,1.2,0,1.7c0,0.2,0.1,0.3,0.3,0.3c0.9,0,1.8,0,2.8,0c0.3,0,0.3,0,0.3,0.3
		c0,0.9-0.1,1.7-0.1,2.6c0,0.2-0.1,0.3-0.3,0.3c-0.9,0-1.8,0-2.7,0c-0.2,0-0.2,0.1-0.2,0.2C-108.9,384.2-108.9,385.5-108.9,386.9"/>
</g>
<g>
	<path d="M-40.7,377.4c0,0.9-0.3,1.8-0.6,2.7c-0.6,1.4-1.4,2.6-2.2,3.8c-0.8,1.2-1.7,2.3-2.7,3.4c-0.8,0.9-1.7,1.7-2.8,2.3
		c-0.5,0.3-1.1,0.5-1.7,0.5c-0.5,0-1-0.2-1.4-0.5s-0.6-0.7-0.9-1.2c-0.4-0.7-0.7-1.5-0.9-2.2c-0.2-0.9-0.5-1.8-0.7-2.7
		s-0.5-1.8-0.7-2.6c-0.2-0.6-0.4-1.2-0.8-1.7c-0.1-0.2-0.2-0.3-0.4-0.4s-0.4-0.2-0.6-0.1c-0.4,0.2-0.7,0.4-1.1,0.7
		c-0.1,0.1-0.2,0.1-0.3,0c-0.2-0.3-0.4-0.6-0.6-0.8c-0.1-0.2-0.1-0.2,0-0.3c0.6-0.5,1.2-1.1,1.8-1.6c0.5-0.5,1.1-1,1.7-1.4
		c0.4-0.3,0.9-0.6,1.3-0.8c0.9-0.3,1.9,0,2.4,0.8c0.3,0.5,0.5,1.1,0.6,1.7c0.2,1,0.3,2,0.5,2.9c0.2,1,0.4,2.1,0.7,3.1
		c0.1,0.4,0.3,0.8,0.5,1.1l0.1,0.1c0.2,0.3,0.5,0.3,0.8,0.1c0.3-0.3,0.6-0.6,0.9-0.9c0.6-0.8,1-1.6,1.4-2.4c0.2-0.4,0.3-0.8,0.3-1.3
		c0-0.2,0-0.4-0.1-0.6c-0.1-0.5-0.5-0.8-1.1-0.8c-0.5,0-0.9,0.1-1.3,0.2c0,0-0.1,0.1-0.1,0c-0.1,0,0-0.1,0-0.1
		c0.2-0.6,0.4-1.2,0.8-1.7c0.6-1,1.4-1.8,2.5-2.2c0.8-0.3,1.6-0.3,2.4-0.2c0.5,0.1,0.9,0.2,1.3,0.5c0.5,0.4,0.7,0.9,0.8,1.5
		C-40.8,376.4-40.7,376.9-40.7,377.4"/>
</g>
<g>
	<path d="M-20.3,379.2c0,0-4.7-0.2-7.8-4.1c-0.5,1-1.3,3,0.9,5.1c-1.4-0.4-1.5-0.4-1.5-0.4s-0.5,2.2,2.8,3.8c-0.8,0.1-1.4,0-1.4,0
		s0.4,2.2,3.4,2.7c-1.5,1.1-3.9,1.8-5.4,1.6c1.7,1.3,6.7,2.7,10.5,0.7c3.8-1.9,6-5.6,6.2-9.6c0-0.8,0.4-1.4,1.8-2.7
		c-0.5,0.1-1.8,0.4-1.8,0.4s1.1-0.9,1.3-2.2c-0.7,0.5-2.1,1.1-2.3,1s-2.3-2.4-4.9-0.7C-20.2,376.3-20.4,377.6-20.3,379.2"/>
</g>
<g>
	<path d="M7.4,384.4c0,0.3-0.1,0.6-0.2,0.8c-0.1,0.2-0.3,0.4-0.4,0.5c-0.2,0.1-0.4,0.2-0.7,0.3c-0.2,0.1-0.5,0.1-0.8,0.1h-3v-3.5h3
		c0.6,0,1.1,0.1,1.4,0.4C7.2,383.3,7.4,383.7,7.4,384.4 M6.9,379.2c0,0.5-0.2,0.9-0.5,1.1s-0.7,0.4-1.2,0.4H2.4v-2.9H5
		c0.2,0,0.5,0,0.7,0.1c0.2,0,0.4,0.1,0.6,0.2s0.3,0.3,0.4,0.4C6.8,378.7,6.9,378.9,6.9,379.2 M9.8,386.2c0.2-0.5,0.4-1,0.4-1.6
		c0-0.8-0.2-1.5-0.6-2c-0.4-0.6-1-0.9-1.7-1.2c0.6-0.3,1-0.6,1.3-1s0.4-1,0.4-1.6s-0.1-1.1-0.3-1.5s-0.5-0.7-0.8-1
		c-0.4-0.2-0.8-0.4-1.3-0.5s-1-0.2-1.6-0.2h-5.9v12.6h6.1c0.6,0,1.1-0.1,1.6-0.2s1-0.4,1.4-0.7C9.2,387,9.5,386.6,9.8,386.2
		 M13,377.7h5.2v-1.2H13V377.7z M17.9,382.6h-4.1c0-0.2,0.1-0.4,0.1-0.6c0.1-0.2,0.2-0.4,0.3-0.6c0.2-0.2,0.4-0.4,0.6-0.5
		c0.3-0.1,0.6-0.2,1-0.2c0.6,0,1.1,0.2,1.4,0.5C17.6,381.5,17.8,382,17.9,382.6 M20.2,382.2c-0.2-0.6-0.4-1.2-0.8-1.7
		s-0.8-0.9-1.4-1.2c-0.6-0.3-1.3-0.4-2-0.4s-1.3,0.1-1.9,0.4c-0.6,0.2-1.1,0.6-1.5,1s-0.7,0.9-1,1.5c-0.2,0.6-0.3,1.2-0.3,1.9
		c0,0.7,0.1,1.4,0.3,1.9c0.2,0.6,0.5,1.1,0.9,1.5s0.9,0.7,1.5,1c0.6,0.2,1.2,0.3,1.9,0.3c1,0,1.9-0.2,2.6-0.7s1.3-1.3,1.6-2.3H18
		c-0.1,0.3-0.3,0.5-0.7,0.8c-0.4,0.3-0.8,0.4-1.3,0.4c-0.7,0-1.2-0.2-1.6-0.5c-0.4-0.4-0.6-1-0.6-1.8h6.6
		C20.4,383.5,20.4,382.8,20.2,382.2"/>
</g>
<g>
	<path d="M35.4,379.2H32v11.1h3.4V379.2z M35.7,375.7c0-1.1-0.9-2-2-2s-2,0.9-2,2s0.9,2,2,2S35.7,376.8,35.7,375.7 M48.3,390.3v-5.8
		c0-3-0.5-5.7-3.9-5.7c-2.9,0-3.6,1.9-3.6,1.9v-1.6h-3.3v11.1h3.3h0.1v-5.8c0-1.9,0.8-2.6,2.1-2.6c0.6,0,1,0.2,1.3,0.6
		s0.5,1.1,0.5,2v5.8L48.3,390.3L48.3,390.3z"/>
</g>
<g>
	<path d="M68.2,385.2c1.7-1.1,3.3-2.1,5-3.2c-1.7-1.1-3.3-2.1-5-3.2V385.2z M69.6,388.3c-2.1,0-4.2,0-6.3,0c-1,0-1.6-0.5-1.9-1.4
		c-0.2-0.4-0.3-0.9-0.4-1.3c-0.4-2.5-0.4-5,0.1-7.5c0.3-1.9,1-2.5,2.9-2.5c4,0,8,0,12,0c1.8,0,2.4,0.5,2.8,2.2
		c0.6,2.8,0.6,5.7-0.1,8.5c-0.3,1.3-0.9,1.9-2.3,1.9C74.2,388.4,69.6,388.3,69.6,388.3L69.6,388.3z"/>
</g>
<g>
	<path d="M99.9,379.7C99.8,379.7,99.8,379.7,99.9,379.7c-0.9,0.6-1.6,1.3-2.5,1.9c-0.3,0.2-0.5,0.3-0.8,0.5
		c-0.2,0.1-0.3,0.2-0.5,0.2c-0.5,0.2-0.9,0.6-0.9,1.2c0,0.5,0.4,1,0.9,1.1s1.1-0.1,1.4-0.6c0.1-0.1,0.1-0.2,0.2-0.3
		c0.1-0.2,0.3-0.5,0.6-0.6c0.2-0.2,0.4-0.4,0.7-0.5c0.2-0.1,0.3-0.1,0.4,0.1c0.2-0.4,0.4-0.9,0.6-1.3c0,0.1,0,0.2-0.1,0.3
		c-0.3,1-0.6,2-0.9,3c0,0.1-0.1,0.1-0.1,0.2c-0.1,0.2-0.2,0.3-0.4,0.5c-0.6,0.3-0.8,1-0.5,1.7c0.2,0.6,0.9,1,1.5,0.8
		c0.6-0.1,1.1-0.7,1.1-1.3c0-0.2,0-0.5-0.2-0.7c-0.1-0.1-0.1-0.2-0.1-0.4c0.1-0.5,0.2-1.1,0.4-1.6c0.1-0.3,0.3-0.6,0.6-0.9
		c0.1-0.1,0.2-0.1,0.3-0.2c0.3-0.2,0.4-0.1,0.6,0.1c0.3,0.3,0.4,0.7,0.4,1.1c0,0.6,0.3,1.1,0.8,1.3c0.5,0.2,1.1,0,1.4-0.5
		s0.2-1.1-0.2-1.5c-0.5-0.5-0.9-1-1.3-1.5c-0.6-0.9-0.7-1.8-0.1-2.7c0.3-0.6,0.7-1.2,1-1.7c0.2-0.4,0.5-0.8,0.9-1
		c0.2-0.2,0.5-0.3,0.8-0.3c0.2,0,0.3,0,0.5,0.1c0.4,0.2,0.8,0.4,1.1,0.6c0.6,0.4,0.9,0.9,0.9,1.6c0,2.5,0,4.9,0,7.4
		c0,0.7-0.3,1.3-0.9,1.6c-2.2,1.2-4.4,2.5-6.6,3.7c-0.3,0.2-0.7,0.3-1.1,0.3c-0.3,0-0.6-0.1-0.9-0.2c-2.2-1.2-4.4-2.5-6.7-3.7
		c-0.6-0.4-0.9-0.9-0.9-1.6c0-2.4,0-4.9,0-7.3c0-0.7,0.3-1.3,0.9-1.6c2.2-1.3,4.4-2.5,6.7-3.7c0.6-0.3,1.3-0.3,1.9,0
		c0.3,0.1,0.5,0.3,0.8,0.4c0.5,0.2,0.6,0.6,0.6,1.1c0,0.4-0.1,0.7-0.3,1c-0.3,0.6-0.6,1.2-1,1.7c-0.6,0.9-1.4,1.4-2.5,1.6
		c-0.7,0.1-1.3,0-1.9,0c-0.2,0-0.4,0-0.6,0c-0.4,0.1-0.8,0.5-0.8,0.9c0,0.5,0.2,0.9,0.6,1.1s0.9,0.1,1.2-0.2
		c0.2-0.2,0.4-0.3,0.6-0.3c0.3-0.1,0.7-0.1,1-0.1c0.1,0,0.1,0,0.2-0.1c0.3-0.2,0.7-0.4,1-0.5C99.7,379.7,99.8,379.7,99.9,379.7"/>
</g>
<g>
	<path d="M135,375c-0.6-1.2-2.2-1.7-3.8-0.9c-1.5,0.8-4.4,2.2-4.4,2.2c-2.1,1.1-2.9,5,0.3,7l2.1,1.2c-1.5,0.7-2.8,1.3-2.8,1.3
		c-1.1,0.4-2.1,2.1-1.4,3.3c0.7,1.2,2.2,1.7,3.8,0.9c1.5-0.8,4.4-2.2,4.4-2.2c2.1-1.1,2.9-5-0.3-7l-2.1-1.2c1.5-0.7,2.8-1.3,2.8-1.3
		C134.6,377.8,135.6,376.2,135,375"/>
</g>
<g>
	<path d="M-70.8,386.9c-0.2,0.3-0.5,0.4-0.9,0.5s-0.8,0.2-1.3,0.3c-0.3,0-0.4,0.2-0.5,0.4c-0.1,0.2-0.1,0.3-0.1,0.5
		c0,0.3-0.2,0.3-0.4,0.3c-0.3,0-0.7-0.1-1-0.1c-0.9-0.1-1.7,0.2-2.4,0.8c-0.5,0.4-1.1,0.7-1.7,0.9c-1,0.3-1.9,0-2.8-0.5
		c-0.4-0.3-0.8-0.6-1.3-0.8c-0.4-0.2-0.8-0.4-1.3-0.4s-1,0.1-1.5,0.1c-0.3,0-0.5,0-0.5-0.3c0-0.1,0-0.1,0-0.2
		c-0.1-0.6-0.2-0.7-0.8-0.8c-0.5-0.1-1-0.2-1.4-0.4c-0.2-0.1-0.3-0.2-0.5-0.3c0.8-0.1,1.4-0.4,2-0.8c1-0.7,1.8-1.7,2.2-2.8
		c0.3-0.6,0-1.2-0.6-1.4c-0.3-0.1-0.7-0.3-1-0.4c-0.1-0.1-0.3-0.1-0.4-0.2s-0.3-0.3-0.2-0.4c0.1-0.1,0.3-0.2,0.4-0.3
		c0.1,0,0.3,0,0.4,0.1c0.5,0.2,1,0.3,1.5,0c0.1-0.1,0.2-0.2,0.2-0.3c0-0.7-0.1-1.4-0.1-2.1c0-1.2,0.2-2.4,1.1-3.4
		c0.8-0.8,1.7-1.3,2.9-1.5c1.3-0.3,2.6,0,3.7,0.7c1,0.6,1.8,1.6,1.9,2.9c0.1,0.9,0,1.8,0,2.7c0,0.3,0,0.5,0,0.8
		c0,0.1,0.1,0.1,0.2,0.2c0.5,0.3,1,0.1,1.4-0.1c0.2-0.1,0.4-0.1,0.6,0c0.3,0.1,0.3,0.4,0,0.6c-0.2,0.1-0.5,0.2-0.7,0.3
		c-0.3,0.1-0.6,0.2-0.9,0.4c-0.5,0.3-0.7,0.8-0.4,1.4c0.5,1.2,1.3,2.2,2.3,2.8c0.5,0.3,1,0.5,1.5,0.7
		C-71,386.9-70.9,386.9-70.8,386.9"/>
</g>
<g>
	<path d="M-134.7,378.4c0.3,0,0.6,0,1,0c0.5,0,0.9-0.3,0.9-0.8c0-0.6,0-1.3,0-1.9c0-0.5-0.3-0.8-0.9-0.8c-0.7,0-1.3,0-2,0
		c-0.5,0-0.8,0.3-0.8,0.8c0,0.7,0,1.3,0,2c0,0.5,0.4,0.8,0.9,0.8C-135.4,378.4-135.1,378.4-134.7,378.4 M-136.3,382
		c0-2-1.6-3.6-3.6-3.6s-3.7,1.6-3.7,3.6s1.7,3.6,3.7,3.6C-138,385.5-136.3,383.9-136.3,382 M-145.6,380.6c-0.4,0-0.8,0-1.1,0
		s-0.5,0.1-0.5,0.4c0,2.4,0,4.8,0,7.1c0,0.6,0.3,0.9,0.9,0.9c4.1,0,8.3,0,12.4,0c0.7,0,0.9-0.2,0.9-1c0-1.9,0-3.8,0-5.7
		c0-0.5,0-1,0-1.5c0-0.1-0.1-0.3-0.2-0.3c-0.4,0-0.9,0-1.3,0c1,3.9-2.2,7.1-5.5,7.1C-143.3,387.8-146.6,384.6-145.6,380.6
		 M-130.7,382c0,2.2,0,4.5,0,6.7c0,1.5-1,2.5-2.5,2.5c-4.5,0-9,0-13.5,0c-1.5,0-2.5-1-2.5-2.6c0-4.5,0-8.9,0-13.4
		c0-1.5,1-2.6,2.6-2.6c4.5,0,9,0,13.4,0c1.6,0,2.6,1,2.6,2.6C-130.7,377.5-130.7,379.8-130.7,382L-130.7,382z"/>
</g>
<line class="st0" x1="-140" y1="402.7" x2="-140" y2="421.3"/>
<line class="st0" x1="-110" y1="402.7" x2="-110" y2="421.3"/>
<line class="st0" x1="-80" y1="402.7" x2="-80" y2="421.3"/>
<line class="st0" x1="-50" y1="402.7" x2="-50" y2="421.3"/>
<line class="st0" x1="-20" y1="402.7" x2="-20" y2="421.3"/>
<line class="st0" x1="10" y1="402.7" x2="10" y2="421.3"/>
<line class="st0" x1="40" y1="402.7" x2="40" y2="421.3"/>
<line class="st0" x1="70" y1="402.7" x2="70" y2="421.3"/>
<line class="st0" x1="100" y1="402.7" x2="100" y2="421.3"/>
<line class="st0" x1="130" y1="402.7" x2="130" y2="421.3"/>
<rect x="-155" y="367" class="st1" width="30" height="30"/>
<rect x="-125" y="367" class="st1" width="30" height="30"/>
<rect x="-95" y="367" class="st1" width="30" height="30"/>
<rect x="-65" y="367" class="st1" width="30" height="30"/>
<rect x="-35" y="367" class="st1" width="30" height="30"/>
<rect x="-5" y="367" class="st1" width="30" height="30"/>
<rect x="25" y="367" class="st1" width="30" height="30"/>
<rect x="55" y="367" class="st1" width="30" height="30"/>
<rect x="85" y="367" class="st1" width="30" height="30"/>
<rect x="115" y="367" class="st1" width="30" height="30"/>
<g>
	<path class="st2" d="M-108.9,446.9c0,1.4,0,2.7,0,4.1c0,0.2-0.1,0.3-0.3,0.3c-0.9,0-1.8,0-2.7,0c-0.3,0-0.3,0-0.3-0.3
		c0-1.1,0-2.1,0-3.2c0-1.6,0-3.2,0-4.9c0-0.3,0-0.3-0.3-0.3c-0.6,0-1.1,0-1.7,0c-0.2,0-0.3-0.1-0.3-0.3c0-0.9,0-1.8,0-2.6
		c0-0.2,0.1-0.3,0.3-0.3c0.6,0,1.1,0,1.7,0c0.3,0,0.3,0,0.3-0.3c0-0.7,0-1.5,0-2.2c0-0.8,0.1-1.6,0.6-2.3c0.6-1,1.5-1.5,2.6-1.7
		c0.9-0.2,1.9-0.1,2.8-0.1c0.2,0,0.4,0,0.5,0.1c0.1,0,0.2,0.1,0.2,0.2c0,0.9,0,1.7,0,2.6c0,0.2-0.1,0.2-0.3,0.2c-0.4,0-0.7,0-1.1,0
		s-0.8,0-1.2,0.1c-0.4,0.1-0.6,0.3-0.7,0.7c0,0.3,0,0.5,0,0.8c0,0.6,0,1.2,0,1.7c0,0.2,0.1,0.3,0.3,0.3c0.9,0,1.8,0,2.8,0
		c0.3,0,0.3,0,0.3,0.3c0,0.9-0.1,1.7-0.1,2.6c0,0.2-0.1,0.3-0.3,0.3c-0.9,0-1.8,0-2.7,0c-0.2,0-0.2,0.1-0.2,0.2
		C-108.9,444.2-108.9,445.5-108.9,446.9"/>
</g>
<g>
	<path class="st2" d="M-40.7,437.4c0,0.9-0.3,1.8-0.6,2.7c-0.6,1.4-1.4,2.6-2.2,3.8c-0.8,1.2-1.7,2.3-2.7,3.4
		c-0.8,0.9-1.7,1.7-2.8,2.3c-0.5,0.3-1.1,0.5-1.7,0.5c-0.5,0-1-0.2-1.4-0.5s-0.6-0.7-0.9-1.2c-0.4-0.7-0.7-1.5-0.9-2.2
		c-0.2-0.9-0.5-1.8-0.7-2.7s-0.5-1.8-0.7-2.6c-0.2-0.6-0.4-1.2-0.8-1.7c-0.1-0.2-0.2-0.3-0.4-0.4s-0.4-0.2-0.6-0.1
		c-0.4,0.2-0.7,0.4-1.1,0.7c-0.1,0.1-0.2,0.1-0.3,0c-0.2-0.3-0.4-0.6-0.6-0.8c-0.1-0.2-0.1-0.2,0-0.3c0.6-0.5,1.2-1.1,1.8-1.6
		c0.5-0.5,1.1-1,1.7-1.4c0.4-0.3,0.9-0.6,1.3-0.8c0.9-0.3,1.9,0,2.4,0.8c0.3,0.5,0.5,1.1,0.6,1.7c0.2,1,0.3,2,0.5,2.9
		c0.2,1,0.4,2.1,0.7,3.1c0.1,0.4,0.3,0.8,0.5,1.1l0.1,0.1c0.2,0.3,0.5,0.3,0.8,0.1c0.3-0.3,0.6-0.6,0.9-0.9c0.6-0.8,1-1.6,1.4-2.4
		c0.2-0.4,0.3-0.8,0.3-1.3c0-0.2,0-0.4-0.1-0.6c-0.1-0.5-0.5-0.8-1.1-0.8c-0.5,0-0.9,0.1-1.3,0.2c0,0-0.1,0.1-0.1,0
		c-0.1,0,0-0.1,0-0.1c0.2-0.6,0.4-1.2,0.8-1.7c0.6-1,1.4-1.8,2.5-2.2c0.8-0.3,1.6-0.3,2.4-0.2c0.5,0.1,0.9,0.2,1.3,0.5
		c0.5,0.4,0.7,0.9,0.8,1.5C-40.8,436.4-40.7,436.9-40.7,437.4"/>
</g>
<g>
	<path class="st2" d="M-20.3,439.2c0,0-4.7-0.2-7.8-4.1c-0.5,1-1.3,3,0.9,5.1c-1.4-0.4-1.5-0.4-1.5-0.4s-0.5,2.2,2.8,3.8
		c-0.8,0.1-1.4,0-1.4,0s0.4,2.2,3.4,2.7c-1.5,1.1-3.9,1.8-5.4,1.6c1.7,1.3,6.7,2.7,10.5,0.7c3.8-1.9,6-5.6,6.2-9.6
		c0-0.8,0.4-1.4,1.8-2.7c-0.5,0.1-1.8,0.4-1.8,0.4s1.1-0.9,1.3-2.2c-0.7,0.5-2.1,1.1-2.3,1s-2.3-2.4-4.9-0.7
		C-20.2,436.3-20.4,437.6-20.3,439.2"/>
</g>
<g>
	<path class="st2" d="M7.4,444.4c0,0.3-0.1,0.6-0.2,0.8c-0.1,0.2-0.3,0.4-0.4,0.5c-0.2,0.1-0.4,0.2-0.7,0.3
		c-0.2,0.1-0.5,0.1-0.8,0.1h-3v-3.5h3c0.6,0,1.1,0.1,1.4,0.4C7.2,443.3,7.4,443.7,7.4,444.4 M6.9,439.2c0,0.5-0.2,0.9-0.5,1.1
		s-0.7,0.4-1.2,0.4H2.4v-2.9H5c0.2,0,0.5,0,0.7,0.1c0.2,0,0.4,0.1,0.6,0.2s0.3,0.3,0.4,0.4C6.8,438.7,6.9,438.9,6.9,439.2
		 M9.8,446.2c0.2-0.5,0.4-1,0.4-1.6c0-0.8-0.2-1.5-0.6-2c-0.4-0.6-1-0.9-1.7-1.2c0.6-0.3,1-0.6,1.3-1s0.4-1,0.4-1.6
		s-0.1-1.1-0.3-1.5s-0.5-0.7-0.8-1c-0.4-0.2-0.8-0.4-1.3-0.5s-1-0.2-1.6-0.2h-5.9v12.6h6.1c0.6,0,1.1-0.1,1.6-0.2s1-0.4,1.4-0.7
		C9.2,447,9.5,446.6,9.8,446.2 M13,437.7h5.2v-1.2H13V437.7z M17.9,442.6h-4.1c0-0.2,0.1-0.4,0.1-0.6c0.1-0.2,0.2-0.4,0.3-0.6
		c0.2-0.2,0.4-0.4,0.6-0.5c0.3-0.1,0.6-0.2,1-0.2c0.6,0,1.1,0.2,1.4,0.5C17.6,441.5,17.8,442,17.9,442.6 M20.2,442.2
		c-0.2-0.6-0.4-1.2-0.8-1.7s-0.8-0.9-1.4-1.2c-0.6-0.3-1.3-0.4-2-0.4s-1.3,0.1-1.9,0.4c-0.6,0.2-1.1,0.6-1.5,1s-0.7,0.9-1,1.5
		c-0.2,0.6-0.3,1.2-0.3,1.9c0,0.7,0.1,1.4,0.3,1.9c0.2,0.6,0.5,1.1,0.9,1.5s0.9,0.7,1.5,1c0.6,0.2,1.2,0.3,1.9,0.3
		c1,0,1.9-0.2,2.6-0.7s1.3-1.3,1.6-2.3H18c-0.1,0.3-0.3,0.5-0.7,0.8c-0.4,0.3-0.8,0.4-1.3,0.4c-0.7,0-1.2-0.2-1.6-0.5
		c-0.4-0.4-0.6-1-0.6-1.8h6.6C20.4,443.5,20.4,442.8,20.2,442.2"/>
</g>
<g>
	<path class="st2" d="M35.4,439.2H32v11.1h3.4V439.2z M35.7,435.7c0-1.1-0.9-2-2-2s-2,0.9-2,2s0.9,2,2,2S35.7,436.8,35.7,435.7
		 M48.3,450.3v-5.8c0-3-0.5-5.7-3.9-5.7c-2.9,0-3.6,1.9-3.6,1.9v-1.6h-3.3v11.1h3.3h0.1v-5.8c0-1.9,0.8-2.6,2.1-2.6
		c0.6,0,1,0.2,1.3,0.6s0.5,1.1,0.5,2v5.8L48.3,450.3L48.3,450.3z"/>
</g>
<g>
	<path class="st2" d="M68.2,445.2c1.7-1.1,3.3-2.1,5-3.2c-1.7-1.1-3.3-2.1-5-3.2V445.2z M69.6,448.3c-2.1,0-4.2,0-6.3,0
		c-1,0-1.6-0.5-1.9-1.4c-0.2-0.4-0.3-0.9-0.4-1.3c-0.4-2.5-0.4-5,0.1-7.5c0.3-1.9,1-2.5,2.9-2.5c4,0,8,0,12,0c1.8,0,2.4,0.5,2.8,2.2
		c0.6,2.8,0.6,5.7-0.1,8.5c-0.3,1.3-0.9,1.9-2.3,1.9C74.2,448.4,69.6,448.3,69.6,448.3L69.6,448.3z"/>
</g>
<g>
	<path class="st2" d="M99.9,439.7C99.8,439.7,99.8,439.7,99.9,439.7c-0.9,0.6-1.6,1.3-2.5,1.9c-0.3,0.2-0.5,0.3-0.8,0.5
		c-0.2,0.1-0.3,0.2-0.5,0.2c-0.5,0.2-0.9,0.6-0.9,1.2c0,0.5,0.4,1,0.9,1.1s1.1-0.1,1.4-0.6c0.1-0.1,0.1-0.2,0.2-0.3
		c0.1-0.2,0.3-0.5,0.6-0.6c0.2-0.2,0.4-0.4,0.7-0.5c0.2-0.1,0.3-0.1,0.4,0.1c0.2-0.4,0.4-0.9,0.6-1.3c0,0.1,0,0.2-0.1,0.3
		c-0.3,1-0.6,2-0.9,3c0,0.1-0.1,0.1-0.1,0.2c-0.1,0.2-0.2,0.3-0.4,0.5c-0.6,0.3-0.8,1-0.5,1.7c0.2,0.6,0.9,1,1.5,0.8
		c0.6-0.1,1.1-0.7,1.1-1.3c0-0.2,0-0.5-0.2-0.7c-0.1-0.1-0.1-0.2-0.1-0.4c0.1-0.5,0.2-1.1,0.4-1.6c0.1-0.3,0.3-0.6,0.6-0.9
		c0.1-0.1,0.2-0.1,0.3-0.2c0.3-0.2,0.4-0.1,0.6,0.1c0.3,0.3,0.4,0.7,0.4,1.1c0,0.6,0.3,1.1,0.8,1.3c0.5,0.2,1.1,0,1.4-0.5
		s0.2-1.1-0.2-1.5c-0.5-0.5-0.9-1-1.3-1.5c-0.6-0.9-0.7-1.8-0.1-2.7c0.3-0.6,0.7-1.2,1-1.7c0.2-0.4,0.5-0.8,0.9-1
		c0.2-0.2,0.5-0.3,0.8-0.3c0.2,0,0.3,0,0.5,0.1c0.4,0.2,0.8,0.4,1.1,0.6c0.6,0.4,0.9,0.9,0.9,1.6c0,2.5,0,4.9,0,7.4
		c0,0.7-0.3,1.3-0.9,1.6c-2.2,1.2-4.4,2.5-6.6,3.7c-0.3,0.2-0.7,0.3-1.1,0.3c-0.3,0-0.6-0.1-0.9-0.2c-2.2-1.2-4.4-2.5-6.7-3.7
		c-0.6-0.4-0.9-0.9-0.9-1.6c0-2.4,0-4.9,0-7.3c0-0.7,0.3-1.3,0.9-1.6c2.2-1.3,4.4-2.5,6.7-3.7c0.6-0.3,1.3-0.3,1.9,0
		c0.3,0.1,0.5,0.3,0.8,0.4c0.5,0.2,0.6,0.6,0.6,1.1c0,0.4-0.1,0.7-0.3,1c-0.3,0.6-0.6,1.2-1,1.7c-0.6,0.9-1.4,1.4-2.5,1.6
		c-0.7,0.1-1.3,0-1.9,0c-0.2,0-0.4,0-0.6,0c-0.4,0.1-0.8,0.5-0.8,0.9c0,0.5,0.2,0.9,0.6,1.1s0.9,0.1,1.2-0.2
		c0.2-0.2,0.4-0.3,0.6-0.3c0.3-0.1,0.7-0.1,1-0.1c0.1,0,0.1,0,0.2-0.1c0.3-0.2,0.7-0.4,1-0.5C99.7,439.7,99.8,439.7,99.9,439.7"/>
</g>
<g>
	<path class="st2" d="M135,435c-0.6-1.2-2.2-1.7-3.8-0.9c-1.5,0.8-4.4,2.2-4.4,2.2c-2.1,1.1-2.9,5,0.3,7l2.1,1.2
		c-1.5,0.7-2.8,1.3-2.8,1.3c-1.1,0.4-2.1,2.1-1.4,3.3c0.7,1.2,2.2,1.7,3.8,0.9c1.5-0.8,4.4-2.2,4.4-2.2c2.1-1.1,2.9-5-0.3-7
		l-2.1-1.2c1.5-0.7,2.8-1.3,2.8-1.3C134.6,437.8,135.6,436.2,135,435"/>
</g>
<g>
	<path class="st2" d="M-70.8,446.9c-0.2,0.3-0.5,0.4-0.9,0.5s-0.8,0.2-1.3,0.3c-0.3,0-0.4,0.2-0.5,0.4c-0.1,0.2-0.1,0.3-0.1,0.5
		c0,0.3-0.2,0.3-0.4,0.3c-0.3,0-0.7-0.1-1-0.1c-0.9-0.1-1.7,0.2-2.4,0.8c-0.5,0.4-1.1,0.7-1.7,0.9c-1,0.3-1.9,0-2.8-0.5
		c-0.4-0.3-0.8-0.6-1.3-0.8c-0.4-0.2-0.8-0.4-1.3-0.4s-1,0.1-1.5,0.1c-0.3,0-0.5,0-0.5-0.3c0-0.1,0-0.1,0-0.2
		c-0.1-0.6-0.2-0.7-0.8-0.8c-0.5-0.1-1-0.2-1.4-0.4c-0.2-0.1-0.3-0.2-0.5-0.3c0.8-0.1,1.4-0.4,2-0.8c1-0.7,1.8-1.7,2.2-2.8
		c0.3-0.6,0-1.2-0.6-1.4c-0.3-0.1-0.7-0.3-1-0.4c-0.1-0.1-0.3-0.1-0.4-0.2s-0.3-0.3-0.2-0.4c0.1-0.1,0.3-0.2,0.4-0.3
		c0.1,0,0.3,0,0.4,0.1c0.5,0.2,1,0.3,1.5,0c0.1-0.1,0.2-0.2,0.2-0.3c0-0.7-0.1-1.4-0.1-2.1c0-1.2,0.2-2.4,1.1-3.4
		c0.8-0.8,1.7-1.3,2.9-1.5c1.3-0.3,2.6,0,3.7,0.7c1,0.6,1.8,1.6,1.9,2.9c0.1,0.9,0,1.8,0,2.7c0,0.3,0,0.5,0,0.8
		c0,0.1,0.1,0.1,0.2,0.2c0.5,0.3,1,0.1,1.4-0.1c0.2-0.1,0.4-0.1,0.6,0c0.3,0.1,0.3,0.4,0,0.6c-0.2,0.1-0.5,0.2-0.7,0.3
		c-0.3,0.1-0.6,0.2-0.9,0.4c-0.5,0.3-0.7,0.8-0.4,1.4c0.5,1.2,1.3,2.2,2.3,2.8c0.5,0.3,1,0.5,1.5,0.7
		C-71,446.9-70.9,446.9-70.8,446.9"/>
</g>
<g>
	<path class="st2" d="M-134.7,438.4c0.3,0,0.6,0,1,0c0.5,0,0.9-0.3,0.9-0.8c0-0.6,0-1.3,0-1.9c0-0.5-0.3-0.8-0.9-0.8
		c-0.7,0-1.3,0-2,0c-0.5,0-0.8,0.3-0.8,0.8c0,0.7,0,1.3,0,2c0,0.5,0.4,0.8,0.9,0.8C-135.4,438.4-135.1,438.4-134.7,438.4
		 M-136.3,442c0-2-1.6-3.6-3.6-3.6s-3.7,1.6-3.7,3.6s1.7,3.6,3.7,3.6C-138,445.5-136.3,443.9-136.3,442 M-145.6,440.6
		c-0.4,0-0.8,0-1.1,0s-0.5,0.1-0.5,0.4c0,2.4,0,4.8,0,7.1c0,0.6,0.3,0.9,0.9,0.9c4.1,0,8.3,0,12.4,0c0.7,0,0.9-0.2,0.9-1
		c0-1.9,0-3.8,0-5.7c0-0.5,0-1,0-1.5c0-0.1-0.1-0.3-0.2-0.3c-0.4,0-0.9,0-1.3,0c1,3.9-2.2,7.1-5.5,7.1
		C-143.3,447.8-146.6,444.6-145.6,440.6 M-130.7,442c0,2.2,0,4.5,0,6.7c0,1.5-1,2.5-2.5,2.5c-4.5,0-9,0-13.5,0c-1.5,0-2.5-1-2.5-2.6
		c0-4.5,0-8.9,0-13.4c0-1.5,1-2.6,2.6-2.6c4.5,0,9,0,13.4,0c1.6,0,2.6,1,2.6,2.6C-130.7,437.5-130.7,439.8-130.7,442L-130.7,442z"/>
</g>
<rect x="-155" y="397" class="st1" width="30" height="30"/>
<rect x="-125" y="397" class="st1" width="30" height="30"/>
<rect x="-95" y="397" class="st1" width="30" height="30"/>
<rect x="-65" y="397" class="st1" width="30" height="30"/>
<rect x="-35" y="397" class="st1" width="30" height="30"/>
<rect x="-5" y="397" class="st1" width="30" height="30"/>
<rect x="25" y="397" class="st1" width="30" height="30"/>
<rect x="55" y="397" class="st1" width="30" height="30"/>
<rect x="85" y="397" class="st1" width="30" height="30"/>
<rect x="115" y="397" class="st1" width="30" height="30"/>
<rect x="-155" y="427" class="st1" width="30" height="30"/>
<rect x="-125" y="427" class="st1" width="30" height="30"/>
<rect x="-95" y="427" class="st1" width="30" height="30"/>
<rect x="-65" y="427" class="st1" width="30" height="30"/>
<rect x="-35" y="427" class="st1" width="30" height="30"/>
<rect x="-5" y="427" class="st1" width="30" height="30"/>
<rect x="25" y="427" class="st1" width="30" height="30"/>
<rect x="55" y="427" class="st1" width="30" height="30"/>
<rect x="85" y="427" class="st1" width="30" height="30"/>
<rect x="115" y="427" class="st1" width="30" height="30"/>
</svg>
