<?xml version="1.0" encoding="utf-8"?>
<!-- Generator: Adobe Illustrator 19.1.0, SVG Export Plug-In . SVG Version: 6.00 Build 0)  -->
<svg version="1.1" id="Layer_1" xmlns="http://www.w3.org/2000/svg" xmlns:xlink="http://www.w3.org/1999/xlink" x="0px" y="0px"
	 viewBox="-155 352 300 90" style="enable-background:new -155 352 300 90;" xml:space="preserve">
<style type="text/css">
	.st0{fill:none;stroke:#000000;stroke-linecap:round;stroke-miterlimit:10;}
	.st1{fill:none;}
	.st2{fill:#FFFFFF;}
</style>
<g>
	<g>
		<path d="M-108.9,371.9c0,1.4,0,2.7,0,4.1c0,0.2-0.1,0.3-0.3,0.3c-0.9,0-1.8,0-2.7,0c-0.3,0-0.3,0-0.3-0.3c0-1.1,0-2.1,0-3.2
			c0-1.6,0-3.2,0-4.9c0-0.3,0-0.3-0.3-0.3c-0.6,0-1.1,0-1.7,0c-0.2,0-0.3-0.1-0.3-0.3c0-0.9,0-1.8,0-2.6c0-0.2,0.1-0.3,0.3-0.3
			c0.6,0,1.1,0,1.7,0c0.3,0,0.3,0,0.3-0.3c0-0.7,0-1.5,0-2.2c0-0.8,0.1-1.6,0.6-2.3c0.6-1,1.5-1.5,2.6-1.7c0.9-0.2,1.9-0.1,2.8-0.1
			c0.2,0,0.4,0,0.5,0.1c0.1,0,0.2,0.1,0.2,0.2c0,0.9,0,1.7,0,2.6c0,0.2-0.1,0.2-0.3,0.2c-0.4,0-0.7,0-1.1,0s-0.8,0-1.2,0.1
			s-0.6,0.3-0.7,0.7c0,0.3,0,0.5,0,0.8c0,0.6,0,1.2,0,1.7c0,0.2,0.1,0.3,0.3,0.3c0.9,0,1.8,0,2.8,0c0.3,0,0.3,0,0.3,0.3
			c0,0.9-0.1,1.7-0.1,2.6c0,0.2-0.1,0.3-0.3,0.3c-0.9,0-1.8,0-2.7,0c-0.2,0-0.2,0.1-0.2,0.2C-108.9,369.2-108.9,370.5-108.9,371.9"
			/>
	</g>
	<g>
		<path d="M-40.7,362.4c0,0.9-0.3,1.8-0.6,2.7c-0.6,1.4-1.4,2.6-2.2,3.8s-1.7,2.3-2.7,3.4c-0.8,0.9-1.7,1.7-2.8,2.3
			c-0.5,0.3-1.1,0.5-1.7,0.5c-0.5,0-1-0.2-1.4-0.5s-0.6-0.7-0.9-1.2c-0.4-0.7-0.7-1.5-0.9-2.2c-0.2-0.9-0.5-1.8-0.7-2.7
			s-0.5-1.8-0.7-2.6c-0.2-0.6-0.4-1.2-0.8-1.7c-0.1-0.2-0.2-0.3-0.4-0.4c-0.2-0.1-0.4-0.2-0.6-0.1c-0.4,0.2-0.7,0.4-1.1,0.7
			c-0.1,0.1-0.2,0.1-0.3,0c-0.2-0.3-0.4-0.6-0.6-0.8c-0.1-0.2-0.1-0.2,0-0.3c0.6-0.5,1.2-1.1,1.8-1.6c0.5-0.5,1.1-1,1.7-1.4
			c0.4-0.3,0.9-0.6,1.3-0.8c0.9-0.3,1.9,0,2.4,0.8c0.3,0.5,0.5,1.1,0.6,1.7c0.2,1,0.3,2,0.5,2.9c0.2,1,0.4,2.1,0.7,3.1
			c0.1,0.4,0.3,0.8,0.5,1.1l0.1,0.1c0.2,0.3,0.5,0.3,0.8,0.1c0.3-0.3,0.6-0.6,0.9-0.9c0.6-0.8,1-1.6,1.4-2.4
			c0.2-0.4,0.3-0.8,0.3-1.3c0-0.2,0-0.4-0.1-0.6c-0.1-0.5-0.5-0.8-1.1-0.8c-0.5,0-0.9,0.1-1.3,0.2c0,0-0.1,0.1-0.1,0
			c-0.1,0,0-0.1,0-0.1c0.2-0.6,0.4-1.2,0.8-1.7c0.6-1,1.4-1.8,2.5-2.2c0.8-0.3,1.6-0.3,2.4-0.2c0.5,0.1,0.9,0.2,1.3,0.5
			c0.5,0.4,0.7,0.9,0.8,1.5C-40.8,361.4-40.7,361.9-40.7,362.4"/>
	</g>
	<g>
		<path d="M-20.3,364.2c0,0-4.7-0.2-7.8-4.1c-0.5,1-1.3,3,0.9,5.1c-1.4-0.4-1.5-0.4-1.5-0.4s-0.5,2.2,2.8,3.8c-0.8,0.1-1.4,0-1.4,0
			s0.4,2.2,3.4,2.7c-1.5,1.1-3.9,1.8-5.4,1.6c1.7,1.3,6.7,2.7,10.5,0.7c3.8-1.9,6-5.6,6.2-9.6c0-0.8,0.4-1.4,1.8-2.7
			c-0.5,0.1-1.8,0.4-1.8,0.4s1.1-0.9,1.3-2.2c-0.7,0.5-2.1,1.1-2.3,1s-2.3-2.4-4.9-0.7C-20.2,361.3-20.4,362.6-20.3,364.2"/>
	</g>
	<g>
		<path d="M7.4,369.4c0,0.3-0.1,0.6-0.2,0.8c-0.1,0.2-0.3,0.4-0.4,0.5c-0.2,0.1-0.4,0.2-0.7,0.3c-0.2,0.1-0.5,0.1-0.8,0.1h-3v-3.5h3
			c0.6,0,1.1,0.1,1.4,0.4C7.2,368.3,7.4,368.7,7.4,369.4 M6.9,364.2c0,0.5-0.2,0.9-0.5,1.1c-0.3,0.2-0.7,0.4-1.2,0.4H2.4v-2.9H5
			c0.2,0,0.5,0,0.7,0.1c0.2,0,0.4,0.1,0.6,0.2s0.3,0.3,0.4,0.4C6.8,363.7,6.9,363.9,6.9,364.2 M9.8,371.2c0.2-0.5,0.4-1,0.4-1.6
			c0-0.8-0.2-1.5-0.6-2c-0.4-0.6-1-0.9-1.7-1.2c0.6-0.3,1-0.6,1.3-1s0.4-1,0.4-1.6s-0.1-1.1-0.3-1.5s-0.5-0.7-0.8-1
			c-0.4-0.2-0.8-0.4-1.3-0.5s-1-0.2-1.6-0.2h-5.9v12.6h6.1c0.6,0,1.1-0.1,1.6-0.2c0.5-0.1,1-0.4,1.4-0.7
			C9.2,372,9.5,371.6,9.8,371.2 M13,362.7h5.2v-1.2H13V362.7z M17.9,367.6h-4.1c0-0.2,0.1-0.4,0.1-0.6c0.1-0.2,0.2-0.4,0.3-0.6
			c0.2-0.2,0.4-0.4,0.6-0.5c0.3-0.1,0.6-0.2,1-0.2c0.6,0,1.1,0.2,1.4,0.5C17.6,366.5,17.8,367,17.9,367.6 M20.2,367.2
			c-0.2-0.6-0.4-1.2-0.8-1.7c-0.4-0.5-0.8-0.9-1.4-1.2s-1.3-0.4-2-0.4s-1.3,0.1-1.9,0.4c-0.6,0.2-1.1,0.6-1.5,1s-0.7,0.9-1,1.5
			c-0.2,0.6-0.3,1.2-0.3,1.9s0.1,1.4,0.3,1.9c0.2,0.6,0.5,1.1,0.9,1.5s0.9,0.7,1.5,1c0.6,0.2,1.2,0.3,1.9,0.3c1,0,1.9-0.2,2.6-0.7
			s1.3-1.3,1.6-2.3H18c-0.1,0.3-0.3,0.5-0.7,0.8s-0.8,0.4-1.3,0.4c-0.7,0-1.2-0.2-1.6-0.5c-0.4-0.4-0.6-1-0.6-1.8h6.6
			C20.4,368.5,20.4,367.8,20.2,367.2"/>
	</g>
	<g>
		<path d="M35.4,364.2H32v11.1h3.4V364.2z M35.7,360.7c0-1.1-0.9-2-2-2s-2,0.9-2,2s0.9,2,2,2C34.8,362.7,35.7,361.8,35.7,360.7
			 M48.3,375.3v-5.8c0-3-0.5-5.7-3.9-5.7c-2.9,0-3.6,1.9-3.6,1.9v-1.6h-3.3v11.1h3.3h0.1v-5.8c0-1.9,0.8-2.6,2.1-2.6
			c0.6,0,1,0.2,1.3,0.6c0.3,0.4,0.5,1.1,0.5,2v5.8L48.3,375.3L48.3,375.3z"/>
	</g>
	<g>
		<path d="M68.2,370.2c1.7-1.1,3.3-2.1,5-3.2c-1.7-1.1-3.3-2.1-5-3.2V370.2z M69.6,373.3c-2.1,0-4.2,0-6.3,0c-1,0-1.6-0.5-1.9-1.4
			c-0.2-0.4-0.3-0.9-0.4-1.3c-0.4-2.5-0.4-5,0.1-7.5c0.3-1.9,1-2.5,2.9-2.5c4,0,8,0,12,0c1.8,0,2.4,0.5,2.8,2.2
			c0.6,2.8,0.6,5.7-0.1,8.5c-0.3,1.3-0.9,1.9-2.3,1.9C74.2,373.4,69.6,373.3,69.6,373.3L69.6,373.3z"/>
	</g>
	<g>
		<path d="M99.9,364.7C99.8,364.7,99.8,364.7,99.9,364.7c-0.9,0.6-1.6,1.3-2.5,1.9c-0.3,0.2-0.5,0.3-0.8,0.5
			c-0.2,0.1-0.3,0.2-0.5,0.2c-0.5,0.2-0.9,0.6-0.9,1.2c0,0.5,0.4,1,0.9,1.1s1.1-0.1,1.4-0.6c0.1-0.1,0.1-0.2,0.2-0.3
			c0.1-0.2,0.3-0.5,0.6-0.6c0.2-0.2,0.4-0.4,0.7-0.5c0.2-0.1,0.3-0.1,0.4,0.1c0.2-0.4,0.4-0.9,0.6-1.3c0,0.1,0,0.2-0.1,0.3
			c-0.3,1-0.6,2-0.9,3c0,0.1-0.1,0.1-0.1,0.2c-0.1,0.2-0.2,0.3-0.4,0.5c-0.6,0.3-0.8,1-0.5,1.7c0.2,0.6,0.9,1,1.5,0.8
			c0.6-0.1,1.1-0.7,1.1-1.3c0-0.2,0-0.5-0.2-0.7c-0.1-0.1-0.1-0.2-0.1-0.4c0.1-0.5,0.2-1.1,0.4-1.6c0.1-0.3,0.3-0.6,0.6-0.9
			c0.1-0.1,0.2-0.1,0.3-0.2c0.3-0.2,0.4-0.1,0.6,0.1c0.3,0.3,0.4,0.7,0.4,1.1c0,0.6,0.3,1.1,0.8,1.3s1.1,0,1.4-0.5s0.2-1.1-0.2-1.5
			c-0.5-0.5-0.9-1-1.3-1.5c-0.6-0.9-0.7-1.8-0.1-2.7c0.3-0.6,0.7-1.2,1-1.7c0.2-0.4,0.5-0.8,0.9-1c0.2-0.2,0.5-0.3,0.8-0.3
			c0.2,0,0.3,0,0.5,0.1c0.4,0.2,0.8,0.4,1.1,0.6c0.6,0.4,0.9,0.9,0.9,1.6c0,2.5,0,4.9,0,7.4c0,0.7-0.3,1.3-0.9,1.6
			c-2.2,1.2-4.4,2.5-6.6,3.7c-0.3,0.2-0.7,0.3-1.1,0.3c-0.3,0-0.6-0.1-0.9-0.2c-2.2-1.2-4.4-2.5-6.7-3.7c-0.6-0.4-0.9-0.9-0.9-1.6
			c0-2.4,0-4.9,0-7.3c0-0.7,0.3-1.3,0.9-1.6c2.2-1.3,4.4-2.5,6.7-3.7c0.6-0.3,1.3-0.3,1.9,0c0.3,0.1,0.5,0.3,0.8,0.4
			c0.5,0.2,0.6,0.6,0.6,1.1c0,0.4-0.1,0.7-0.3,1c-0.3,0.6-0.6,1.2-1,1.7c-0.6,0.9-1.4,1.4-2.5,1.6c-0.7,0.1-1.3,0-1.9,0
			c-0.2,0-0.4,0-0.6,0c-0.4,0.1-0.8,0.5-0.8,0.9c0,0.5,0.2,0.9,0.6,1.1s0.9,0.1,1.2-0.2c0.2-0.2,0.4-0.3,0.6-0.3
			c0.3-0.1,0.7-0.1,1-0.1c0.1,0,0.1,0,0.2-0.1c0.3-0.2,0.7-0.4,1-0.5C99.7,364.7,99.8,364.7,99.9,364.7"/>
	</g>
	<g>
		<path d="M135,360c-0.6-1.2-2.2-1.7-3.8-0.9c-1.5,0.8-4.4,2.2-4.4,2.2c-2.1,1.1-2.9,5,0.3,7l2.1,1.2c-1.5,0.7-2.8,1.3-2.8,1.3
			c-1.1,0.4-2.1,2.1-1.4,3.3c0.7,1.2,2.2,1.7,3.8,0.9c1.5-0.8,4.4-2.2,4.4-2.2c2.1-1.1,2.9-5-0.3-7l-2.1-1.2
			c1.5-0.7,2.8-1.3,2.8-1.3C134.6,362.8,135.6,361.2,135,360"/>
	</g>
	<g>
		<path d="M-70.8,371.9c-0.2,0.3-0.5,0.4-0.9,0.5s-0.8,0.2-1.3,0.3c-0.3,0-0.4,0.2-0.5,0.4s-0.1,0.3-0.1,0.5c0,0.3-0.2,0.3-0.4,0.3
			c-0.3,0-0.7-0.1-1-0.1c-0.9-0.1-1.7,0.2-2.4,0.8c-0.5,0.4-1.1,0.7-1.7,0.9c-1,0.3-1.9,0-2.8-0.5c-0.4-0.3-0.8-0.6-1.3-0.8
			c-0.4-0.2-0.8-0.4-1.3-0.4s-1,0.1-1.5,0.1c-0.3,0-0.5,0-0.5-0.3c0-0.1,0-0.1,0-0.2c-0.1-0.6-0.2-0.7-0.8-0.8
			c-0.5-0.1-1-0.2-1.4-0.4c-0.2-0.1-0.3-0.2-0.5-0.3c0.8-0.1,1.4-0.4,2-0.8c1-0.7,1.8-1.7,2.2-2.8c0.3-0.6,0-1.2-0.6-1.4
			c-0.3-0.1-0.7-0.3-1-0.4c-0.1-0.1-0.3-0.1-0.4-0.2c-0.1-0.1-0.3-0.3-0.2-0.4c0.1-0.1,0.3-0.2,0.4-0.3c0.1,0,0.3,0,0.4,0.1
			c0.5,0.2,1,0.3,1.5,0c0.1-0.1,0.2-0.2,0.2-0.3c0-0.7-0.1-1.4-0.1-2.1c0-1.2,0.2-2.4,1.1-3.4c0.8-0.8,1.7-1.3,2.9-1.5
			c1.3-0.3,2.6,0,3.7,0.7c1,0.6,1.8,1.6,1.9,2.9c0.1,0.9,0,1.8,0,2.7c0,0.3,0,0.5,0,0.8c0,0.1,0.1,0.1,0.2,0.2
			c0.5,0.3,1,0.1,1.4-0.1c0.2-0.1,0.4-0.1,0.6,0c0.3,0.1,0.3,0.4,0,0.6c-0.2,0.1-0.5,0.2-0.7,0.3c-0.3,0.1-0.6,0.2-0.9,0.4
			c-0.5,0.3-0.7,0.8-0.4,1.4c0.5,1.2,1.3,2.2,2.3,2.8c0.5,0.3,1,0.5,1.5,0.7C-71,371.9-70.9,371.9-70.8,371.9"/>
	</g>
	<line class="st0" x1="-140" y1="387.7" x2="-140" y2="406.3"/>
	<line class="st0" x1="-110" y1="387.7" x2="-110" y2="406.3"/>
	<line class="st0" x1="-80" y1="387.7" x2="-80" y2="406.3"/>
	<line class="st0" x1="-50" y1="387.7" x2="-50" y2="406.3"/>
	<line class="st0" x1="-20" y1="387.7" x2="-20" y2="406.3"/>
	<line class="st0" x1="10" y1="387.7" x2="10" y2="406.3"/>
	<line class="st0" x1="40" y1="387.7" x2="40" y2="406.3"/>
	<line class="st0" x1="70" y1="387.7" x2="70" y2="406.3"/>
	<line class="st0" x1="100" y1="387.7" x2="100" y2="406.3"/>
	<line class="st0" x1="130" y1="387.7" x2="130" y2="406.3"/>
	<rect x="-155" y="352" class="st1" width="30" height="30"/>
	<rect x="-125" y="352" class="st1" width="30" height="30"/>
	<rect x="-95" y="352" class="st1" width="30" height="30"/>
	<rect x="-65" y="352" class="st1" width="30" height="30"/>
	<rect x="-35" y="352" class="st1" width="30" height="30"/>
	<rect x="-5" y="352" class="st1" width="30" height="30"/>
	<rect x="25" y="352" class="st1" width="30" height="30"/>
	<rect x="55" y="352" class="st1" width="30" height="30"/>
	<rect x="85" y="352" class="st1" width="30" height="30"/>
	<rect x="115" y="352" class="st1" width="30" height="30"/>
	<g>
		<path class="st2" d="M-108.9,431.9c0,1.4,0,2.7,0,4.1c0,0.2-0.1,0.3-0.3,0.3c-0.9,0-1.8,0-2.7,0c-0.3,0-0.3,0-0.3-0.3
			c0-1.1,0-2.1,0-3.2c0-1.6,0-3.2,0-4.9c0-0.3,0-0.3-0.3-0.3c-0.6,0-1.1,0-1.7,0c-0.2,0-0.3-0.1-0.3-0.3c0-0.9,0-1.8,0-2.6
			c0-0.2,0.1-0.3,0.3-0.3c0.6,0,1.1,0,1.7,0c0.3,0,0.3,0,0.3-0.3c0-0.7,0-1.5,0-2.2c0-0.8,0.1-1.6,0.6-2.3c0.6-1,1.5-1.5,2.6-1.7
			c0.9-0.2,1.9-0.1,2.8-0.1c0.2,0,0.4,0,0.5,0.1c0.1,0,0.2,0.1,0.2,0.2c0,0.9,0,1.7,0,2.6c0,0.2-0.1,0.2-0.3,0.2c-0.4,0-0.7,0-1.1,0
			s-0.8,0-1.2,0.1s-0.6,0.3-0.7,0.7c0,0.3,0,0.5,0,0.8c0,0.6,0,1.2,0,1.7c0,0.2,0.1,0.3,0.3,0.3c0.9,0,1.8,0,2.8,0
			c0.3,0,0.3,0,0.3,0.3c0,0.9-0.1,1.7-0.1,2.6c0,0.2-0.1,0.3-0.3,0.3c-0.9,0-1.8,0-2.7,0c-0.2,0-0.2,0.1-0.2,0.2
			C-108.9,429.2-108.9,430.5-108.9,431.9"/>
	</g>
	<g>
		<path class="st2" d="M-40.7,422.4c0,0.9-0.3,1.8-0.6,2.7c-0.6,1.4-1.4,2.6-2.2,3.8s-1.7,2.3-2.7,3.4c-0.8,0.9-1.7,1.7-2.8,2.3
			c-0.5,0.3-1.1,0.5-1.7,0.5c-0.5,0-1-0.2-1.4-0.5s-0.6-0.7-0.9-1.2c-0.4-0.7-0.7-1.5-0.9-2.2c-0.2-0.9-0.5-1.8-0.7-2.7
			s-0.5-1.8-0.7-2.6c-0.2-0.6-0.4-1.2-0.8-1.7c-0.1-0.2-0.2-0.3-0.4-0.4c-0.2-0.1-0.4-0.2-0.6-0.1c-0.4,0.2-0.7,0.4-1.1,0.7
			c-0.1,0.1-0.2,0.1-0.3,0c-0.2-0.3-0.4-0.6-0.6-0.8c-0.1-0.2-0.1-0.2,0-0.3c0.6-0.5,1.2-1.1,1.8-1.6c0.5-0.5,1.1-1,1.7-1.4
			c0.4-0.3,0.9-0.6,1.3-0.8c0.9-0.3,1.9,0,2.4,0.8c0.3,0.5,0.5,1.1,0.6,1.7c0.2,1,0.3,2,0.5,2.9c0.2,1,0.4,2.1,0.7,3.1
			c0.1,0.4,0.3,0.8,0.5,1.1l0.1,0.1c0.2,0.3,0.5,0.3,0.8,0.1c0.3-0.3,0.6-0.6,0.9-0.9c0.6-0.8,1-1.6,1.4-2.4
			c0.2-0.4,0.3-0.8,0.3-1.3c0-0.2,0-0.4-0.1-0.6c-0.1-0.5-0.5-0.8-1.1-0.8c-0.5,0-0.9,0.1-1.3,0.2c0,0-0.1,0.1-0.1,0
			c-0.1,0,0-0.1,0-0.1c0.2-0.6,0.4-1.2,0.8-1.7c0.6-1,1.4-1.8,2.5-2.2c0.8-0.3,1.6-0.3,2.4-0.2c0.5,0.1,0.9,0.2,1.3,0.5
			c0.5,0.4,0.7,0.9,0.8,1.5C-40.8,421.4-40.7,421.9-40.7,422.4"/>
	</g>
	<g>
		<path class="st2" d="M-20.3,424.2c0,0-4.7-0.2-7.8-4.1c-0.5,1-1.3,3,0.9,5.1c-1.4-0.4-1.5-0.4-1.5-0.4s-0.5,2.2,2.8,3.8
			c-0.8,0.1-1.4,0-1.4,0s0.4,2.2,3.4,2.7c-1.5,1.1-3.9,1.8-5.4,1.6c1.7,1.3,6.7,2.7,10.5,0.7c3.8-1.9,6-5.6,6.2-9.6
			c0-0.8,0.4-1.4,1.8-2.7c-0.5,0.1-1.8,0.4-1.8,0.4s1.1-0.9,1.3-2.2c-0.7,0.5-2.1,1.1-2.3,1s-2.3-2.4-4.9-0.7
			C-20.2,421.3-20.4,422.6-20.3,424.2"/>
	</g>
	<g>
		<path class="st2" d="M7.4,429.4c0,0.3-0.1,0.6-0.2,0.8c-0.1,0.2-0.3,0.4-0.4,0.5c-0.2,0.1-0.4,0.2-0.7,0.3
			c-0.2,0.1-0.5,0.1-0.8,0.1h-3v-3.5h3c0.6,0,1.1,0.1,1.4,0.4C7.2,428.3,7.4,428.7,7.4,429.4 M6.9,424.2c0,0.5-0.2,0.9-0.5,1.1
			c-0.3,0.2-0.7,0.4-1.2,0.4H2.4v-2.9H5c0.2,0,0.5,0,0.7,0.1c0.2,0,0.4,0.1,0.6,0.2s0.3,0.3,0.4,0.4C6.8,423.7,6.9,423.9,6.9,424.2
			 M9.8,431.2c0.2-0.5,0.4-1,0.4-1.6c0-0.8-0.2-1.5-0.6-2c-0.4-0.6-1-0.9-1.7-1.2c0.6-0.3,1-0.6,1.3-1s0.4-1,0.4-1.6
			s-0.1-1.1-0.3-1.5s-0.5-0.7-0.8-1c-0.4-0.2-0.8-0.4-1.3-0.5s-1-0.2-1.6-0.2h-5.9v12.6h6.1c0.6,0,1.1-0.1,1.6-0.2
			c0.5-0.1,1-0.4,1.4-0.7C9.2,432,9.5,431.6,9.8,431.2 M13,422.7h5.2v-1.2H13V422.7z M17.9,427.6h-4.1c0-0.2,0.1-0.4,0.1-0.6
			c0.1-0.2,0.2-0.4,0.3-0.6c0.2-0.2,0.4-0.4,0.6-0.5c0.3-0.1,0.6-0.2,1-0.2c0.6,0,1.1,0.2,1.4,0.5C17.6,426.5,17.8,427,17.9,427.6
			 M20.2,427.2c-0.2-0.6-0.4-1.2-0.8-1.7c-0.4-0.5-0.8-0.9-1.4-1.2s-1.3-0.4-2-0.4s-1.3,0.1-1.9,0.4c-0.6,0.2-1.1,0.6-1.5,1
			s-0.7,0.9-1,1.5c-0.2,0.6-0.3,1.2-0.3,1.9s0.1,1.4,0.3,1.9c0.2,0.6,0.5,1.1,0.9,1.5s0.9,0.7,1.5,1c0.6,0.2,1.2,0.3,1.9,0.3
			c1,0,1.9-0.2,2.6-0.7s1.3-1.3,1.6-2.3H18c-0.1,0.3-0.3,0.5-0.7,0.8s-0.8,0.4-1.3,0.4c-0.7,0-1.2-0.2-1.6-0.5
			c-0.4-0.4-0.6-1-0.6-1.8h6.6C20.4,428.5,20.4,427.8,20.2,427.2"/>
	</g>
	<g>
		<path class="st2" d="M35.4,424.2H32v11.1h3.4V424.2z M35.7,420.7c0-1.1-0.9-2-2-2s-2,0.9-2,2s0.9,2,2,2
			C34.8,422.7,35.7,421.8,35.7,420.7 M48.3,435.3v-5.8c0-3-0.5-5.7-3.9-5.7c-2.9,0-3.6,1.9-3.6,1.9v-1.6h-3.3v11.1h3.3h0.1v-5.8
			c0-1.9,0.8-2.6,2.1-2.6c0.6,0,1,0.2,1.3,0.6c0.3,0.4,0.5,1.1,0.5,2v5.8L48.3,435.3L48.3,435.3z"/>
	</g>
	<g>
		<path class="st2" d="M68.2,430.2c1.7-1.1,3.3-2.1,5-3.2c-1.7-1.1-3.3-2.1-5-3.2V430.2z M69.6,433.3c-2.1,0-4.2,0-6.3,0
			c-1,0-1.6-0.5-1.9-1.4c-0.2-0.4-0.3-0.9-0.4-1.3c-0.4-2.5-0.4-5,0.1-7.5c0.3-1.9,1-2.5,2.9-2.5c4,0,8,0,12,0
			c1.8,0,2.4,0.5,2.8,2.2c0.6,2.8,0.6,5.7-0.1,8.5c-0.3,1.3-0.9,1.9-2.3,1.9C74.2,433.4,69.6,433.3,69.6,433.3L69.6,433.3z"/>
	</g>
	<g>
		<path class="st2" d="M99.9,424.7C99.8,424.7,99.8,424.7,99.9,424.7c-0.9,0.6-1.6,1.3-2.5,1.9c-0.3,0.2-0.5,0.3-0.8,0.5
			c-0.2,0.1-0.3,0.2-0.5,0.2c-0.5,0.2-0.9,0.6-0.9,1.2c0,0.5,0.4,1,0.9,1.1s1.1-0.1,1.4-0.6c0.1-0.1,0.1-0.2,0.2-0.3
			c0.1-0.2,0.3-0.5,0.6-0.6c0.2-0.2,0.4-0.4,0.7-0.5c0.2-0.1,0.3-0.1,0.4,0.1c0.2-0.4,0.4-0.9,0.6-1.3c0,0.1,0,0.2-0.1,0.3
			c-0.3,1-0.6,2-0.9,3c0,0.1-0.1,0.1-0.1,0.2c-0.1,0.2-0.2,0.3-0.4,0.5c-0.6,0.3-0.8,1-0.5,1.7c0.2,0.6,0.9,1,1.5,0.8
			c0.6-0.1,1.1-0.7,1.1-1.3c0-0.2,0-0.5-0.2-0.7c-0.1-0.1-0.1-0.2-0.1-0.4c0.1-0.5,0.2-1.1,0.4-1.6c0.1-0.3,0.3-0.6,0.6-0.9
			c0.1-0.1,0.2-0.1,0.3-0.2c0.3-0.2,0.4-0.1,0.6,0.1c0.3,0.3,0.4,0.7,0.4,1.1c0,0.6,0.3,1.1,0.8,1.3s1.1,0,1.4-0.5s0.2-1.1-0.2-1.5
			c-0.5-0.5-0.9-1-1.3-1.5c-0.6-0.9-0.7-1.8-0.1-2.7c0.3-0.6,0.7-1.2,1-1.7c0.2-0.4,0.5-0.8,0.9-1c0.2-0.2,0.5-0.3,0.8-0.3
			c0.2,0,0.3,0,0.5,0.1c0.4,0.2,0.8,0.4,1.1,0.6c0.6,0.4,0.9,0.9,0.9,1.6c0,2.5,0,4.9,0,7.4c0,0.7-0.3,1.3-0.9,1.6
			c-2.2,1.2-4.4,2.5-6.6,3.7c-0.3,0.2-0.7,0.3-1.1,0.3c-0.3,0-0.6-0.1-0.9-0.2c-2.2-1.2-4.4-2.5-6.7-3.7c-0.6-0.4-0.9-0.9-0.9-1.6
			c0-2.4,0-4.9,0-7.3c0-0.7,0.3-1.3,0.9-1.6c2.2-1.3,4.4-2.5,6.7-3.7c0.6-0.3,1.3-0.3,1.9,0c0.3,0.1,0.5,0.3,0.8,0.4
			c0.5,0.2,0.6,0.6,0.6,1.1c0,0.4-0.1,0.7-0.3,1c-0.3,0.6-0.6,1.2-1,1.7c-0.6,0.9-1.4,1.4-2.5,1.6c-0.7,0.1-1.3,0-1.9,0
			c-0.2,0-0.4,0-0.6,0c-0.4,0.1-0.8,0.5-0.8,0.9c0,0.5,0.2,0.9,0.6,1.1s0.9,0.1,1.2-0.2c0.2-0.2,0.4-0.3,0.6-0.3
			c0.3-0.1,0.7-0.1,1-0.1c0.1,0,0.1,0,0.2-0.1c0.3-0.2,0.7-0.4,1-0.5C99.7,424.7,99.8,424.7,99.9,424.7"/>
	</g>
	<g>
		<path class="st2" d="M135,420c-0.6-1.2-2.2-1.7-3.8-0.9c-1.5,0.8-4.4,2.2-4.4,2.2c-2.1,1.1-2.9,5,0.3,7l2.1,1.2
			c-1.5,0.7-2.8,1.3-2.8,1.3c-1.1,0.4-2.1,2.1-1.4,3.3c0.7,1.2,2.2,1.7,3.8,0.9c1.5-0.8,4.4-2.2,4.4-2.2c2.1-1.1,2.9-5-0.3-7
			l-2.1-1.2c1.5-0.7,2.8-1.3,2.8-1.3C134.6,422.8,135.6,421.2,135,420"/>
	</g>
	<g>
		<path class="st2" d="M-70.8,431.9c-0.2,0.3-0.5,0.4-0.9,0.5s-0.8,0.2-1.3,0.3c-0.3,0-0.4,0.2-0.5,0.4s-0.1,0.3-0.1,0.5
			c0,0.3-0.2,0.3-0.4,0.3c-0.3,0-0.7-0.1-1-0.1c-0.9-0.1-1.7,0.2-2.4,0.8c-0.5,0.4-1.1,0.7-1.7,0.9c-1,0.3-1.9,0-2.8-0.5
			c-0.4-0.3-0.8-0.6-1.3-0.8c-0.4-0.2-0.8-0.4-1.3-0.4s-1,0.1-1.5,0.1c-0.3,0-0.5,0-0.5-0.3c0-0.1,0-0.1,0-0.2
			c-0.1-0.6-0.2-0.7-0.8-0.8c-0.5-0.1-1-0.2-1.4-0.4c-0.2-0.1-0.3-0.2-0.5-0.3c0.8-0.1,1.4-0.4,2-0.8c1-0.7,1.8-1.7,2.2-2.8
			c0.3-0.6,0-1.2-0.6-1.4c-0.3-0.1-0.7-0.3-1-0.4c-0.1-0.1-0.3-0.1-0.4-0.2c-0.1-0.1-0.3-0.3-0.2-0.4c0.1-0.1,0.3-0.2,0.4-0.3
			c0.1,0,0.3,0,0.4,0.1c0.5,0.2,1,0.3,1.5,0c0.1-0.1,0.2-0.2,0.2-0.3c0-0.7-0.1-1.4-0.1-2.1c0-1.2,0.2-2.4,1.1-3.4
			c0.8-0.8,1.7-1.3,2.9-1.5c1.3-0.3,2.6,0,3.7,0.7c1,0.6,1.8,1.6,1.9,2.9c0.1,0.9,0,1.8,0,2.7c0,0.3,0,0.5,0,0.8
			c0,0.1,0.1,0.1,0.2,0.2c0.5,0.3,1,0.1,1.4-0.1c0.2-0.1,0.4-0.1,0.6,0c0.3,0.1,0.3,0.4,0,0.6c-0.2,0.1-0.5,0.2-0.7,0.3
			c-0.3,0.1-0.6,0.2-0.9,0.4c-0.5,0.3-0.7,0.8-0.4,1.4c0.5,1.2,1.3,2.2,2.3,2.8c0.5,0.3,1,0.5,1.5,0.7
			C-71,431.9-70.9,431.9-70.8,431.9"/>
	</g>
	<rect x="-155" y="382" class="st1" width="30" height="30"/>
	<rect x="-125" y="382" class="st1" width="30" height="30"/>
	<rect x="-95" y="382" class="st1" width="30" height="30"/>
	<rect x="-65" y="382" class="st1" width="30" height="30"/>
	<rect x="-35" y="382" class="st1" width="30" height="30"/>
	<rect x="-5" y="382" class="st1" width="30" height="30"/>
	<rect x="25" y="382" class="st1" width="30" height="30"/>
	<rect x="55" y="382" class="st1" width="30" height="30"/>
	<rect x="85" y="382" class="st1" width="30" height="30"/>
	<rect x="115" y="382" class="st1" width="30" height="30"/>
	<rect x="-155" y="412" class="st1" width="30" height="30"/>
	<rect x="-125" y="412" class="st1" width="30" height="30"/>
	<rect x="-95" y="412" class="st1" width="30" height="30"/>
	<rect x="-65" y="412" class="st1" width="30" height="30"/>
	<rect x="-35" y="412" class="st1" width="30" height="30"/>
	<rect x="-5" y="412" class="st1" width="30" height="30"/>
	<rect x="25" y="412" class="st1" width="30" height="30"/>
	<rect x="55" y="412" class="st1" width="30" height="30"/>
	<rect x="85" y="412" class="st1" width="30" height="30"/>
	<rect x="115" y="412" class="st1" width="30" height="30"/>
	<g>
		<path class="st2" d="M-137.1,426.9c0,1.5-1.3,2.8-2.8,2.8s-2.8-1.3-2.8-2.8c0-1.6,1.3-2.8,2.8-2.8
			C-138.4,424.1-137.1,425.4-137.1,426.9 M-135.1,426.9c0-2.7-2.1-4.7-4.7-4.8c-2.7-0.1-4.9,2.1-4.9,4.7c0,2.7,2.1,4.8,4.8,4.8
			C-137.3,431.7-135.1,429.5-135.1,426.9 M-134,422c0-0.6-0.5-1.1-1.1-1.1s-1.1,0.5-1.1,1.1s0.5,1.1,1.1,1.1S-134,422.6-134,422
			 M-132.6,430.4c0,1.8-1.4,3.5-3.2,3.7c-0.2,0-0.5,0.1-0.7,0.1c-2.3,0-4.5,0-6.8,0c-2.1,0-3.9-1.7-3.9-3.8c0-2.3,0-4.6,0-6.8
			c0-1.9,1.3-3.5,3.1-3.8c0.2,0,0.5-0.1,0.7-0.1c1.1,0,2.3,0,3.4,0s2.3,0,3.4,0c1,0,1.9,0.3,2.6,1c0.8,0.8,1.3,1.7,1.3,2.9
			C-132.6,425.8-132.6,428.1-132.6,430.4 M-130.6,423.3c0-0.3,0-0.5-0.1-0.8c-0.5-2.9-2.9-4.9-5.8-4.9c-1.1,0-2.3,0-3.4,0
			s-2.3,0-3.4,0c-0.5,0-0.9,0.1-1.4,0.2c-2.6,0.6-4.5,3-4.5,5.7c0,2.3,0,4.6,0,6.9c0,0.4,0,0.7,0.1,1.1c0.5,2.7,2.9,4.8,5.7,4.8
			c2.3,0,4.6,0,6.9,0c1,0,1.9-0.2,2.8-0.7c2-1.1,3-2.8,3-5.1C-130.6,428-130.6,425.7-130.6,423.3"/>
	</g>
	<g>
		<path d="M-137.1,366.9c0,1.5-1.3,2.8-2.8,2.8s-2.8-1.3-2.8-2.8c0-1.6,1.3-2.8,2.8-2.8C-138.4,364.1-137.1,365.4-137.1,366.9
			 M-135.1,366.9c0-2.7-2.1-4.7-4.7-4.8c-2.7-0.1-4.9,2.1-4.9,4.7c0,2.7,2.1,4.8,4.8,4.8C-137.3,371.7-135.1,369.5-135.1,366.9
			 M-134,362c0-0.6-0.5-1.1-1.1-1.1s-1.1,0.5-1.1,1.1s0.5,1.1,1.1,1.1S-134,362.6-134,362 M-132.6,370.4c0,1.8-1.4,3.5-3.2,3.7
			c-0.2,0-0.5,0.1-0.7,0.1c-2.3,0-4.5,0-6.8,0c-2.1,0-3.9-1.7-3.9-3.8c0-2.3,0-4.6,0-6.8c0-1.9,1.3-3.5,3.1-3.8
			c0.2,0,0.5-0.1,0.7-0.1c1.1,0,2.3,0,3.4,0s2.3,0,3.4,0c1,0,1.9,0.3,2.6,1c0.8,0.8,1.3,1.7,1.3,2.9
			C-132.6,365.8-132.6,368.1-132.6,370.4 M-130.6,363.3c0-0.3,0-0.5-0.1-0.8c-0.5-2.9-2.9-4.9-5.8-4.9c-1.1,0-2.3,0-3.4,0
			s-2.3,0-3.4,0c-0.5,0-0.9,0.1-1.4,0.2c-2.6,0.6-4.5,3-4.5,5.7c0,2.3,0,4.6,0,6.9c0,0.4,0,0.7,0.1,1.1c0.5,2.7,2.9,4.8,5.7,4.8
			c2.3,0,4.6,0,6.9,0c1,0,1.9-0.2,2.8-0.7c2-1.1,3-2.8,3-5.1C-130.6,368-130.6,365.7-130.6,363.3"/>
	</g>
</g>
</svg>
