<?xml version="1.0" encoding="utf-8"?>
<!-- Generator: Adobe Illustrator 19.1.0, SVG Export Plug-In . SVG Version: 6.00 Build 0)  -->
<svg version="1.1" xmlns="http://www.w3.org/2000/svg" xmlns:xlink="http://www.w3.org/1999/xlink" x="0px" y="0px"
	 viewBox="0 0 24 20" style="enable-background:new 0 0 24 20;" xml:space="preserve">
<style type="text/css">
	.st0{fill:#FFFFFF;}
	.st1{fill:none;}
	.st2{stroke:#FFFFFF;stroke-linecap:round;stroke-miterlimit:10;}
	.st3{fill:#B18939;}
	.st4{fill:none;stroke:#FFFFFF;stroke-width:2;stroke-miterlimit:10;}
	.st5{fill:#FFFFFF;stroke:#FFFFFF;stroke-width:2;stroke-linecap:round;stroke-miterlimit:10;}
	.st6{fill:none;stroke:#FFFFFF;stroke-width:2;stroke-linecap:round;stroke-miterlimit:10;}
	.st7{fill:none;stroke:#FFFFFF;stroke-width:2;stroke-linecap:round;stroke-linejoin:round;}
</style>
<g id="Layer_1">
</g>
<g id="Layer_2">
</g>
<g id="Layer_3">
	<g>
		<path d="M3.7,10.1c0.2,0.2,5.2,5,7.5,7.3c0.5,0.5,0.5,0.7,0,1.3c-1.2,1.2-1.2,1.2-2.4,0c-2.6-2.6-5.3-5.3-7.9-7.9
			c-0.7-0.7-0.7-0.8,0-1.5c2.8-2.8,5.6-5.6,8.4-8.4c0.6-0.6,0.8-0.6,1.4,0c1.1,1.1,1.1,1.1,0,2.2C8.4,5.4,6.1,7.6,3.7,10.1"/>
	</g>
	<g>
		<path d="M20.3,10.1c-0.2,0.2-5.2,5-7.5,7.3c-0.5,0.5-0.5,0.7,0,1.3c1.2,1.2,1.2,1.2,2.4,0c2.6-2.6,5.3-5.3,7.9-7.9
			c0.7-0.7,0.7-0.8,0-1.5c-2.8-2.8-5.6-5.6-8.4-8.4c-0.6-0.6-0.8-0.6-1.4,0c-1.1,1.1-1.1,1.1,0,2.2C15.6,5.4,17.9,7.6,20.3,10.1"/>
	</g>
</g>
</svg>
